<svg width="10" height="5" viewBox="0 0 10 5" fill="none" xmlns="http://www.w3.org/2000/svg">
<path d="M0.700781 0.5C0.700781 0.366666 0.746614 0.25 0.838281 0.15C0.929947 0.0499996 1.05078 -3.60619e-07 1.20078 -3.54062e-07L8.80078 -2.18557e-08C8.95078 -1.5299e-08 9.07161 0.05 9.16328 0.15C9.25495 0.25 9.30078 0.366667 9.30078 0.5C9.30078 0.533333 9.25078 0.65 9.15078 0.85L5.52578 4.475C5.44245 4.55833 5.35911 4.61667 5.27578 4.65C5.19245 4.68333 5.10078 4.7 5.00078 4.7C4.90078 4.7 4.80911 4.68333 4.72578 4.65C4.64245 4.61667 4.55911 4.55833 4.47578 4.475L0.850781 0.85C0.800781 0.8 0.763281 0.745833 0.738281 0.6875C0.713282 0.629166 0.700781 0.566666 0.700781 0.5Z" fill="#606060"/>
</svg>
