<svg width="40" height="40" viewBox="0 0 40 40" fill="none" xmlns="http://www.w3.org/2000/svg">
<mask id="mask0_927_2953" style="mask-type:alpha" maskUnits="userSpaceOnUse" x="0" y="0" width="40" height="40">
<rect width="40" height="40" fill="#D9D9D9"/>
</mask>
<g mask="url(#mask0_927_2953)">
<path d="M22.9993 20.0007L16.4993 13.5007C16.1938 13.1951 16.041 12.8062 16.041 12.334C16.041 11.8618 16.1938 11.4729 16.4993 11.1673C16.8049 10.8618 17.1938 10.709 17.666 10.709C18.1382 10.709 18.5271 10.8618 18.8327 11.1673L26.4993 18.834C26.666 19.0007 26.7841 19.1812 26.8535 19.3757C26.923 19.5701 26.9577 19.7784 26.9577 20.0007C26.9577 20.2229 26.923 20.4312 26.8535 20.6257C26.7841 20.8201 26.666 21.0007 26.4993 21.1673L18.8327 28.834C18.5271 29.1395 18.1382 29.2923 17.666 29.2923C17.1938 29.2923 16.8049 29.1395 16.4993 28.834C16.1938 28.5284 16.041 28.1395 16.041 27.6673C16.041 27.1951 16.1938 26.8062 16.4993 26.5007L22.9993 20.0007Z" fill="black"/>
</g>
</svg>
