<svg width="28" height="28" viewBox="0 0 28 28" fill="none" xmlns="http://www.w3.org/2000/svg">
<mask id="mask0_459_34523" style="mask-type:alpha" maskUnits="userSpaceOnUse" x="0" y="0" width="28" height="28">
<rect width="28" height="28" fill="#0E9940"/>
</mask>
<g mask="url(#mask0_459_34523)">
<path d="M4.66732 23.3327C4.02565 23.3327 3.47635 23.1042 3.0194 22.6473C2.56246 22.1903 2.33398 21.641 2.33398 20.9993V17.0618C2.33398 16.848 2.40204 16.6632 2.53815 16.5077C2.67426 16.3521 2.84926 16.2549 3.06315 16.216C3.52982 16.0605 3.91385 15.7785 4.21523 15.3702C4.51662 14.9619 4.66732 14.5049 4.66732 13.9993C4.66732 13.4938 4.51662 13.0368 4.21523 12.6285C3.91385 12.2202 3.52982 11.9382 3.06315 11.7827C2.84926 11.7438 2.67426 11.6466 2.53815 11.491C2.40204 11.3355 2.33398 11.1507 2.33398 10.9368V6.99935C2.33398 6.35768 2.56246 5.80838 3.0194 5.35143C3.47635 4.89449 4.02565 4.66602 4.66732 4.66602H23.334C23.9757 4.66602 24.525 4.89449 24.9819 5.35143C25.4388 5.80838 25.6673 6.35768 25.6673 6.99935V10.9368C25.6673 11.1507 25.5993 11.3355 25.4632 11.491C25.327 11.6466 25.152 11.7438 24.9382 11.7827C24.4715 11.9382 24.0875 12.2202 23.7861 12.6285C23.4847 13.0368 23.334 13.4938 23.334 13.9993C23.334 14.5049 23.4847 14.9619 23.7861 15.3702C24.0875 15.7785 24.4715 16.0605 24.9382 16.216C25.152 16.2549 25.327 16.3521 25.4632 16.5077C25.5993 16.6632 25.6673 16.848 25.6673 17.0618V20.9993C25.6673 21.641 25.4388 22.1903 24.9819 22.6473C24.525 23.1042 23.9757 23.3327 23.334 23.3327H4.66732ZM4.66732 20.9993H23.334V18.0243C22.6145 17.5966 22.0458 17.0278 21.6277 16.3181C21.2097 15.6084 21.0007 14.8355 21.0007 13.9993C21.0007 13.1632 21.2097 12.3903 21.6277 11.6806C22.0458 10.9709 22.6145 10.4021 23.334 9.97435V6.99935H4.66732V9.97435C5.38676 10.4021 5.95551 10.9709 6.37357 11.6806C6.79162 12.3903 7.00065 13.1632 7.00065 13.9993C7.00065 14.8355 6.79162 15.6084 6.37357 16.3181C5.95551 17.0278 5.38676 17.5966 4.66732 18.0243V20.9993ZM14.0007 19.8327C14.3312 19.8327 14.6083 19.7209 14.8319 19.4973C15.0555 19.2737 15.1673 18.9966 15.1673 18.666C15.1673 18.3355 15.0555 18.0584 14.8319 17.8348C14.6083 17.6112 14.3312 17.4993 14.0007 17.4993C13.6701 17.4993 13.393 17.6112 13.1694 17.8348C12.9458 18.0584 12.834 18.3355 12.834 18.666C12.834 18.9966 12.9458 19.2737 13.1694 19.4973C13.393 19.7209 13.6701 19.8327 14.0007 19.8327ZM14.0007 15.166C14.3312 15.166 14.6083 15.0542 14.8319 14.8306C15.0555 14.607 15.1673 14.3299 15.1673 13.9993C15.1673 13.6688 15.0555 13.3917 14.8319 13.1681C14.6083 12.9445 14.3312 12.8327 14.0007 12.8327C13.6701 12.8327 13.393 12.9445 13.1694 13.1681C12.9458 13.3917 12.834 13.6688 12.834 13.9993C12.834 14.3299 12.9458 14.607 13.1694 14.8306C13.393 15.0542 13.6701 15.166 14.0007 15.166ZM14.0007 10.4993C14.3312 10.4993 14.6083 10.3875 14.8319 10.1639C15.0555 9.94032 15.1673 9.66324 15.1673 9.33268C15.1673 9.00213 15.0555 8.72504 14.8319 8.50143C14.6083 8.27782 14.3312 8.16602 14.0007 8.16602C13.6701 8.16602 13.393 8.27782 13.1694 8.50143C12.9458 8.72504 12.834 9.00213 12.834 9.33268C12.834 9.66324 12.9458 9.94032 13.1694 10.1639C13.393 10.3875 13.6701 10.4993 14.0007 10.4993Z" fill="#0E9940"/>
</g>
</svg>
