<svg width="44" height="44" viewBox="0 0 44 44" fill="none" xmlns="http://www.w3.org/2000/svg">
<mask id="mask0_1099_795" style="mask-type:alpha" maskUnits="userSpaceOnUse" x="0" y="0" width="44" height="44">
<rect width="44" height="44" fill="#D9D9D9"/>
</mask>
<g mask="url(#mask0_1099_795)">
<path d="M15.8583 36.6667H11C9.99167 36.6667 9.12847 36.3076 8.41042 35.5896C7.69236 34.8715 7.33333 34.0083 7.33333 33V28.1417L3.80417 24.5667C3.46806 24.2 3.20833 23.7951 3.025 23.3521C2.84167 22.909 2.75 22.4583 2.75 22C2.75 21.5417 2.84167 21.091 3.025 20.6479C3.20833 20.2049 3.46806 19.8 3.80417 19.4333L7.33333 15.8583V11C7.33333 9.99167 7.69236 9.12847 8.41042 8.41042C9.12847 7.69236 9.99167 7.33333 11 7.33333H15.8583L19.4333 3.80417C19.8 3.46806 20.2049 3.20833 20.6479 3.025C21.091 2.84167 21.5417 2.75 22 2.75C22.4583 2.75 22.909 2.84167 23.3521 3.025C23.7951 3.20833 24.2 3.46806 24.5667 3.80417L28.1417 7.33333H33C34.0083 7.33333 34.8715 7.69236 35.5896 8.41042C36.3076 9.12847 36.6667 9.99167 36.6667 11V15.8583L40.1958 19.4333C40.5319 19.8 40.7917 20.2049 40.975 20.6479C41.1583 21.091 41.25 21.5417 41.25 22C41.25 22.4583 41.1583 22.909 40.975 23.3521C40.7917 23.7951 40.5319 24.2 40.1958 24.5667L36.6667 28.1417V33C36.6667 34.0083 36.3076 34.8715 35.5896 35.5896C34.8715 36.3076 34.0083 36.6667 33 36.6667H28.1417L24.5667 40.1958C24.2 40.5319 23.7951 40.7917 23.3521 40.975C22.909 41.1583 22.4583 41.25 22 41.25C21.5417 41.25 21.091 41.1583 20.6479 40.975C20.2049 40.7917 19.8 40.5319 19.4333 40.1958L15.8583 36.6667ZM17.4167 33L22 37.5833L26.5833 33H33V26.5833L37.5833 22L33 17.4167V11H26.5833L22 6.41667L17.4167 11H11V17.4167L6.41667 22L11 26.5833V33H17.4167Z" fill="#EFA971"/>
</g>
<path d="M19.489 28.2071C19.3301 28.4882 19.1284 28.6716 18.884 28.7571C18.6395 28.8549 18.4012 28.8732 18.169 28.8121C17.9368 28.751 17.7351 28.6349 17.564 28.4638C17.3929 28.2927 17.289 28.0788 17.2523 27.8221C17.2157 27.5654 17.2768 27.2966 17.4357 27.0154L23.8523 15.9604C24.0234 15.6671 24.2251 15.4777 24.4573 15.3921C24.6895 15.2943 24.9218 15.276 25.154 15.3371C25.3984 15.3982 25.6001 15.5204 25.759 15.7038C25.9301 15.8749 26.034 16.0888 26.0707 16.3454C26.1195 16.5899 26.0584 16.8527 25.8873 17.1338L19.489 28.2071ZM16.8307 23.3121C15.7307 23.3121 14.8751 22.9516 14.264 22.2304C13.6651 21.4971 13.3657 20.5316 13.3657 19.3338C13.3657 18.5271 13.5062 17.8304 13.7873 17.2438C14.0684 16.6571 14.4657 16.2049 14.979 15.8871C15.4923 15.5693 16.1095 15.4104 16.8307 15.4104C17.9184 15.4104 18.7618 15.771 19.3607 16.4921C19.9718 17.201 20.2773 18.1482 20.2773 19.3338C20.2773 20.1282 20.1368 20.8249 19.8557 21.4238C19.5868 22.0227 19.1957 22.4871 18.6823 22.8171C18.169 23.1471 17.5518 23.3121 16.8307 23.3121ZM16.8307 21.2954C17.014 21.2954 17.1668 21.2343 17.289 21.1121C17.4234 20.9777 17.5212 20.7699 17.5823 20.4888C17.6557 20.1954 17.6923 19.8104 17.6923 19.3338C17.6923 18.6127 17.6129 18.1116 17.454 17.8304C17.3073 17.5493 17.0995 17.4088 16.8307 17.4088C16.6351 17.4088 16.4701 17.4699 16.3357 17.5921C16.2134 17.7021 16.1157 17.8977 16.0423 18.1788C15.9812 18.4599 15.9507 18.8449 15.9507 19.3338C15.9507 20.0671 16.024 20.5804 16.1707 20.8738C16.3173 21.1549 16.5373 21.2954 16.8307 21.2954ZM26.5107 28.7388C25.4229 28.7388 24.5734 28.3782 23.9623 27.6571C23.3634 26.936 23.064 25.9766 23.064 24.7788C23.064 23.9599 23.1984 23.2571 23.4673 22.6704C23.7484 22.0838 24.1457 21.6316 24.659 21.3138C25.1845 20.996 25.8018 20.8371 26.5107 20.8371C27.5984 20.8371 28.4479 21.1977 29.059 21.9188C29.6701 22.6399 29.9757 23.5932 29.9757 24.7788C29.9757 25.5732 29.8351 26.2699 29.554 26.8688C29.2851 27.4554 28.894 27.9138 28.3807 28.2438C27.8673 28.5738 27.244 28.7388 26.5107 28.7388ZM26.5107 26.7404C26.7062 26.7404 26.8651 26.6793 26.9873 26.5571C27.1218 26.4227 27.2195 26.2149 27.2807 25.9338C27.354 25.6404 27.3907 25.2554 27.3907 24.7788C27.3907 24.0577 27.3112 23.5566 27.1523 23.2754C27.0057 22.9943 26.7918 22.8538 26.5107 22.8538C26.3273 22.8538 26.1684 22.9149 26.034 23.0371C25.9118 23.1471 25.814 23.3427 25.7407 23.6238C25.6795 23.8927 25.649 24.2777 25.649 24.7788C25.649 25.5121 25.7223 26.0254 25.869 26.3188C26.0157 26.5999 26.2295 26.7404 26.5107 26.7404Z" fill="#EFA971"/>
</svg>
