<svg width="28" height="28" viewBox="0 0 28 28" fill="none" xmlns="http://www.w3.org/2000/svg">
<path d="M28 13.9982C28 6.26621 21.732 -0.00179863 14 -0.00179863C6.26801 -0.00179863 0 6.26621 0 13.9982C0 20.986 5.1196 26.7778 11.8125 27.8281V18.0451H8.25781V13.9982H11.8125V10.9138C11.8125 7.40508 13.9026 5.46695 17.1005 5.46695C18.6322 5.46695 20.2344 5.74039 20.2344 5.74039V9.1857H18.469C16.7299 9.1857 16.1875 10.2649 16.1875 11.372V13.9982H20.0703L19.4496 18.0451H16.1875V27.8281C22.8804 26.7778 28 20.986 28 13.9982Z" fill="#1877F2"/>
<path d="M19.4496 18.0469L20.0703 14H16.1875V11.3738C16.1875 10.2667 16.7299 9.1875 18.469 9.1875H20.2344V5.74219C20.2344 5.74219 18.6322 5.46875 17.1005 5.46875C13.9026 5.46875 11.8125 7.40688 11.8125 10.9156V14H8.25781V18.0469H11.8125V27.8299C12.5253 27.9418 13.2558 28 14 28C14.7442 28 15.4747 27.9418 16.1875 27.8299V18.0469H19.4496Z" fill="white"/>
</svg>
