<svg width="24" height="21" viewBox="0 0 24 21" fill="none" xmlns="http://www.w3.org/2000/svg">
<path d="M12.0002 20.7126C11.7279 20.7126 11.4509 20.664 11.1689 20.5668C10.887 20.4696 10.6391 20.314 10.4252 20.1001L8.41266 18.2626C6.35155 16.3765 4.48975 14.505 2.82725 12.648C1.16475 10.7911 0.333496 8.74457 0.333496 6.50846C0.333496 4.68069 0.945996 3.1543 2.171 1.9293C3.396 0.704297 4.92238 0.0917969 6.75016 0.0917969C7.78072 0.0917969 8.75294 0.310547 9.66683 0.748047C10.5807 1.18555 11.3585 1.78346 12.0002 2.5418C12.6418 1.78346 13.4196 1.18555 14.3335 0.748047C15.2474 0.310547 16.2196 0.0917969 17.2502 0.0917969C19.0779 0.0917969 20.6043 0.704297 21.8293 1.9293C23.0543 3.1543 23.6668 4.68069 23.6668 6.50846C23.6668 8.74457 22.8404 10.796 21.1877 12.6626C19.5349 14.5293 17.6585 16.4057 15.5585 18.2918L13.5752 20.1001C13.3613 20.314 13.1134 20.4696 12.8314 20.5668C12.5495 20.664 12.2724 20.7126 12.0002 20.7126ZM10.8918 4.87513C10.3279 4.07791 9.72516 3.47027 9.0835 3.05221C8.44183 2.63416 7.66405 2.42513 6.75016 2.42513C5.5835 2.42513 4.61127 2.81402 3.8335 3.5918C3.05572 4.36958 2.66683 5.3418 2.66683 6.50846C2.66683 7.51958 3.02655 8.59388 3.746 9.73138C4.46544 10.8689 5.32586 11.9724 6.32725 13.0418C7.32864 14.1112 8.35919 15.1126 9.41891 16.046C10.4786 16.9793 11.3391 17.7474 12.0002 18.3501C12.6613 17.7474 13.5217 16.9793 14.5814 16.046C15.6411 15.1126 16.6717 14.1112 17.6731 13.0418C18.6745 11.9724 19.5349 10.8689 20.2543 9.73138C20.9738 8.59388 21.3335 7.51958 21.3335 6.50846C21.3335 5.3418 20.9446 4.36958 20.1668 3.5918C19.3891 2.81402 18.4168 2.42513 17.2502 2.42513C16.3363 2.42513 15.5585 2.63416 14.9168 3.05221C14.2752 3.47027 13.6724 4.07791 13.1085 4.87513C12.9724 5.06957 12.8071 5.21541 12.6127 5.31263C12.4182 5.40985 12.2141 5.45846 12.0002 5.45846C11.7863 5.45846 11.5821 5.40985 11.3877 5.31263C11.1932 5.21541 11.0279 5.06957 10.8918 4.87513Z" fill="#0E9940"/>
</svg>
