<svg width="118" height="88" viewBox="0 0 118 88" fill="none" xmlns="http://www.w3.org/2000/svg">
<path d="M90 42.5C90 57.9506 75.9782 71 58 71C40.0218 71 26 57.9506 26 42.5C26 27.0494 40.0218 14 58 14C75.9782 14 90 27.0494 90 42.5Z" stroke="#0E9940" stroke-width="6"/>
<path d="M79 67C79 76.5239 69.8246 85 57.5 85C45.1754 85 36 76.5239 36 67C36 57.4761 45.1754 49 57.5 49C69.8246 49 79 57.4761 79 67Z" fill="white" stroke="#0E9940" stroke-width="6"/>
<circle cx="53.5" cy="59.5" r="1.5" fill="#0E9940"/>
<circle cx="49" cy="37" r="3" fill="#0E9940"/>
<circle cx="60.5" cy="59.5" r="1.5" fill="#0E9940"/>
<circle cx="66" cy="37" r="3" fill="#0E9940"/>
<path d="M113.419 26.5633L113.4 26.589L113.381 26.6152C111.396 29.4045 109.734 31.2673 107.799 32.8056C105.953 34.2724 103.743 35.5367 100.541 36.9897C97.3487 37.0392 95.0553 36.916 92.9465 36.4473C90.9313 35.9993 88.951 35.2043 86.461 33.7481C85.6596 32.2422 85.253 31.2699 85.0864 30.4036C84.9331 29.606 84.9536 28.7245 85.3984 27.3548C86.3281 25.991 87.0562 25.2309 87.7687 24.6866C88.5386 24.0984 89.4417 23.6429 90.9418 23.0207C95.8581 21.4491 99.3646 20.8992 102.603 21.0148C105.866 21.1314 109.064 21.9287 113.421 23.3628C114.201 23.6887 114.663 23.9496 114.923 24.1365C114.901 24.1941 114.873 24.2621 114.836 24.3413C114.605 24.8479 114.167 25.5588 113.419 26.5633Z" fill="white" stroke="#0E9940" stroke-width="6"/>
<path d="M4.58106 26.5633L4.60023 26.589L4.61884 26.6152C6.60436 29.4045 8.26619 31.2673 10.2014 32.8056C12.0467 34.2724 14.2566 35.5367 17.4591 36.9897C20.6513 37.0392 22.9447 36.916 25.0535 36.4473C27.0687 35.9993 29.049 35.2043 31.539 33.7481C32.3404 32.2422 32.747 31.2699 32.9136 30.4036C33.0669 29.606 33.0464 28.7245 32.6016 27.3548C31.6719 25.991 30.9438 25.2309 30.2313 24.6866C29.4614 24.0984 28.5583 23.6429 27.0582 23.0207C22.1419 21.4491 18.6354 20.8992 15.3975 21.0148C12.1345 21.1314 8.93584 21.9287 4.57915 23.3628C3.79887 23.6887 3.33748 23.9496 3.07698 24.1365C3.09906 24.1941 3.12733 24.2621 3.16351 24.3413C3.3951 24.8479 3.83318 25.5588 4.58106 26.5633Z" fill="white" stroke="#0E9940" stroke-width="6"/>
<path d="M83.0016 12.9874L83.0431 12.9382L83.0813 12.8865C85.8305 9.16557 87.1841 6.64693 88.7475 2.06209C88.7828 2.04782 88.8136 2.0367 88.8404 2.02804C88.9416 1.99532 88.9774 1.99984 88.983 2.00054C88.9833 2.00057 88.9835 2.0006 88.9836 2.00061C89.021 2.00422 89.1137 2.02204 89.3452 2.14503C89.8755 4.40554 90.0056 5.90382 89.9998 8.55497C89.9334 11.6981 89.7176 14.0126 89.1944 16.2198C88.6768 18.404 87.8379 20.5679 86.4417 23.3809C84.9079 25.8165 83.7776 26.9943 82.5923 27.5499C81.5147 28.055 80.067 28.1916 77.5444 27.6649C75.9461 26.118 75.2854 25.0309 75.0782 23.9893C74.8679 22.9324 75.0524 21.5596 75.9938 19.2847C78.522 17.6368 80.1795 16.3336 83.0016 12.9874Z" fill="white" stroke="#0E9940" stroke-width="4"/>
<path d="M33.9984 12.9874L33.9569 12.9382L33.9187 12.8865C31.1695 9.16557 29.8159 6.64693 28.2525 2.06209C28.2172 2.04782 28.1864 2.0367 28.1596 2.02804C28.0584 1.99532 28.0226 1.99984 28.017 2.00054C28.0167 2.00057 28.0165 2.0006 28.0164 2.00061C27.979 2.00422 27.8863 2.02204 27.6548 2.14503C27.1245 4.40554 26.9944 5.90382 27.0002 8.55497C27.0666 11.6981 27.2824 14.0126 27.8056 16.2198C28.3232 18.404 29.1621 20.5679 30.5583 23.3809C32.0921 25.8165 33.2224 26.9943 34.4077 27.5499C35.4853 28.055 36.933 28.1916 39.4556 27.6649C41.0539 26.118 41.7146 25.0309 41.9218 23.9893C42.1321 22.9324 41.9476 21.5596 41.0062 19.2847C38.478 17.6368 36.8205 16.3336 33.9984 12.9874Z" fill="white" stroke="#0E9940" stroke-width="4"/>
</svg>
