<svg width="20" height="20" viewBox="0 0 20 20" fill="none" xmlns="http://www.w3.org/2000/svg">
<mask id="mask0_520_23693" style="mask-type:alpha" maskUnits="userSpaceOnUse" x="0" y="0" width="20" height="20">
<rect width="20" height="20" fill="#D9D9D9"/>
</mask>
<g mask="url(#mask0_520_23693)">
<path d="M3.33366 16.6673C2.87533 16.6673 2.48296 16.5041 2.15658 16.1777C1.83019 15.8513 1.66699 15.459 1.66699 15.0007V5.00065C1.66699 4.54232 1.83019 4.14996 2.15658 3.82357C2.48296 3.49718 2.87533 3.33398 3.33366 3.33398H16.667C17.1253 3.33398 17.5177 3.49718 17.8441 3.82357C18.1705 4.14996 18.3337 4.54232 18.3337 5.00065V15.0007C18.3337 15.459 18.1705 15.8513 17.8441 16.1777C17.5177 16.5041 17.1253 16.6673 16.667 16.6673H3.33366ZM16.667 6.66732L10.4378 10.5632C10.3684 10.6048 10.2955 10.6361 10.2191 10.6569C10.1427 10.6777 10.0698 10.6882 10.0003 10.6882C9.93088 10.6882 9.85796 10.6777 9.78158 10.6569C9.70519 10.6361 9.63227 10.6048 9.56283 10.5632L3.33366 6.66732V15.0007H16.667V6.66732ZM10.0003 9.16732L16.667 5.00065H3.33366L10.0003 9.16732ZM3.33366 6.87565V5.64648V5.66732V5.6569V6.87565Z" fill="#0E9940"/>
</g>
</svg>
