<svg width="58" height="21" viewBox="0 0 58 21" fill="none" xmlns="http://www.w3.org/2000/svg">
<path d="M2.83298 15.1044C2.56431 15.1044 2.35631 15.0307 2.20898 14.8834C2.07031 14.7274 2.00098 14.5151 2.00098 14.2464V6.58945C2.00098 6.31212 2.07031 6.09978 2.20898 5.95245C2.35631 5.80511 2.56431 5.73145 2.83298 5.73145C3.10165 5.73145 3.30531 5.80511 3.44398 5.95245C3.59131 6.09978 3.66498 6.31212 3.66498 6.58945V9.65745H8.38398V6.58945C8.38398 6.31212 8.45331 6.09978 8.59198 5.95245C8.73931 5.80511 8.94731 5.73145 9.21598 5.73145C9.48465 5.73145 9.68831 5.80511 9.82698 5.95245C9.97431 6.09978 10.048 6.31212 10.048 6.58945V14.2464C10.048 14.5151 9.97431 14.7274 9.82698 14.8834C9.68831 15.0307 9.48465 15.1044 9.21598 15.1044C8.94731 15.1044 8.73931 15.0307 8.59198 14.8834C8.45331 14.7274 8.38398 14.5151 8.38398 14.2464V11.0484H3.66498V14.2464C3.66498 14.5151 3.59565 14.7274 3.45698 14.8834C3.31831 15.0307 3.11031 15.1044 2.83298 15.1044ZM14.8897 15.1304C14.231 15.1304 13.659 14.9961 13.1737 14.7274C12.6884 14.4588 12.3114 14.0774 12.0427 13.5834C11.774 13.0808 11.6397 12.4914 11.6397 11.8154C11.6397 11.3041 11.7133 10.8491 11.8607 10.4504C12.0167 10.0431 12.2377 9.69645 12.5237 9.41045C12.8097 9.11578 13.152 8.89478 13.5507 8.74745C13.9494 8.59145 14.3957 8.51345 14.8897 8.51345C15.5484 8.51345 16.1204 8.64778 16.6057 8.91645C17.091 9.18512 17.468 9.56645 17.7367 10.0604C18.0054 10.5544 18.1397 11.1394 18.1397 11.8154C18.1397 12.3268 18.0617 12.7861 17.9057 13.1934C17.7584 13.6008 17.5417 13.9518 17.2557 14.2464C16.9697 14.5324 16.6274 14.7534 16.2287 14.9094C15.83 15.0567 15.3837 15.1304 14.8897 15.1304ZM14.8897 13.8954C15.2104 13.8954 15.492 13.8174 15.7347 13.6614C15.9774 13.5054 16.1637 13.2758 16.2937 12.9724C16.4324 12.6604 16.5017 12.2748 16.5017 11.8154C16.5017 11.1221 16.3544 10.6064 16.0597 10.2684C15.765 9.92178 15.375 9.74845 14.8897 9.74845C14.569 9.74845 14.2874 9.82645 14.0447 9.98245C13.802 10.1298 13.6114 10.3594 13.4727 10.6714C13.3427 10.9748 13.2777 11.3561 13.2777 11.8154C13.2777 12.5001 13.425 13.0201 13.7197 13.3754C14.0144 13.7221 14.4044 13.8954 14.8897 13.8954ZM20.4517 15.0004C20.1917 15.0004 19.9923 14.9311 19.8537 14.7924C19.715 14.6538 19.6457 14.4544 19.6457 14.1944V9.44945C19.6457 9.18945 19.715 8.99012 19.8537 8.85145C19.9923 8.71278 20.1917 8.64345 20.4517 8.64345H23.0777C23.6237 8.64345 24.0657 8.70845 24.4037 8.83845C24.7503 8.96845 25.0017 9.15912 25.1577 9.41045C25.3137 9.65312 25.3917 9.95212 25.3917 10.3074C25.3917 10.7061 25.253 11.0441 24.9757 11.3214C24.707 11.5901 24.3473 11.7548 23.8967 11.8154V11.6334C24.46 11.6681 24.8847 11.8284 25.1707 12.1144C25.4653 12.4004 25.6127 12.7688 25.6127 13.2194C25.6127 13.7654 25.4047 14.1988 24.9887 14.5194C24.5727 14.8401 23.9703 15.0004 23.1817 15.0004H20.4517ZM21.1537 13.9994H23.0387C23.394 13.9994 23.6627 13.9258 23.8447 13.7784C24.0353 13.6311 24.1307 13.4144 24.1307 13.1284C24.1307 12.8424 24.0353 12.6258 23.8447 12.4784C23.6627 12.3311 23.394 12.2574 23.0387 12.2574H21.1537V13.9994ZM21.1537 11.2564H22.9217C23.2337 11.2564 23.4763 11.1871 23.6497 11.0484C23.823 10.9011 23.9097 10.6974 23.9097 10.4374C23.9097 10.1774 23.823 9.98245 23.6497 9.85245C23.4763 9.71378 23.2337 9.64445 22.9217 9.64445H21.1537V11.2564ZM27.7883 15.1044C27.6237 15.1044 27.485 15.0741 27.3723 15.0134C27.2597 14.9528 27.173 14.8574 27.1123 14.7274C27.0603 14.5974 27.0343 14.4328 27.0343 14.2334V9.31945C27.0343 9.06812 27.0993 8.87745 27.2293 8.74745C27.3593 8.60878 27.5413 8.53945 27.7753 8.53945C28.0093 8.53945 28.187 8.60878 28.3083 8.74745C28.4383 8.87745 28.5033 9.06812 28.5033 9.31945V13.3364H28.1653L31.3763 9.05945C31.4717 8.93812 31.5887 8.82112 31.7273 8.70845C31.866 8.59578 32.0567 8.53945 32.2993 8.53945C32.464 8.53945 32.5983 8.56978 32.7023 8.63045C32.815 8.69112 32.8973 8.78645 32.9493 8.91645C33.01 9.03778 33.0403 9.19812 33.0403 9.39745V14.3244C33.0403 14.5671 32.9753 14.7578 32.8453 14.8964C32.724 15.0351 32.5463 15.1044 32.3123 15.1044C32.0697 15.1044 31.8833 15.0351 31.7533 14.8964C31.632 14.7578 31.5713 14.5671 31.5713 14.3244V10.2944H31.9223L28.6983 14.5844C28.6117 14.7058 28.499 14.8228 28.3603 14.9354C28.2303 15.0481 28.0397 15.1044 27.7883 15.1044ZM35.699 15.1044C35.439 15.1044 35.2354 15.0351 35.088 14.8964C34.9494 14.7491 34.88 14.5411 34.88 14.2724V9.35845C34.88 9.08112 34.9494 8.87745 35.088 8.74745C35.2354 8.60878 35.439 8.53945 35.699 8.53945C35.959 8.53945 36.1584 8.60878 36.297 8.74745C36.4357 8.87745 36.505 9.08112 36.505 9.35845V11.1004H39.313V9.35845C39.313 9.08112 39.3824 8.87745 39.521 8.74745C39.6597 8.60878 39.859 8.53945 40.119 8.53945C40.379 8.53945 40.5784 8.60878 40.717 8.74745C40.8644 8.87745 40.938 9.08112 40.938 9.35845V14.2724C40.938 14.5411 40.8644 14.7491 40.717 14.8964C40.5784 15.0351 40.379 15.1044 40.119 15.1044C39.859 15.1044 39.6597 15.0351 39.521 14.8964C39.3824 14.7491 39.313 14.5411 39.313 14.2724V12.3744H36.505V14.2724C36.505 14.5411 36.4357 14.7491 36.297 14.8964C36.167 15.0351 35.9677 15.1044 35.699 15.1044ZM43.6082 15.1044C43.3482 15.1044 43.1445 15.0351 42.9972 14.8964C42.8585 14.7491 42.7892 14.5411 42.7892 14.2724V9.38445C42.7892 9.11578 42.8585 8.91212 42.9972 8.77345C43.1445 8.62612 43.3482 8.55245 43.6082 8.55245C43.8682 8.55245 44.0675 8.62612 44.2062 8.77345C44.3449 8.91212 44.4142 9.11578 44.4142 9.38445V11.1134H45.3372L46.9622 8.92945C47.0835 8.76478 47.2222 8.66078 47.3782 8.61745C47.5342 8.56545 47.6815 8.56112 47.8202 8.60445C47.9675 8.64778 48.0845 8.72578 48.1712 8.83845C48.2665 8.95112 48.3142 9.08545 48.3142 9.24145C48.3229 9.38878 48.2665 9.54478 48.1452 9.70945L46.5982 11.8284L46.2472 11.3084C46.4812 11.3344 46.6892 11.3994 46.8712 11.5034C47.0619 11.6074 47.2352 11.7548 47.3912 11.9454C47.5559 12.1274 47.7162 12.3571 47.8722 12.6344L48.6392 13.9994C48.7432 14.1814 48.7779 14.3504 48.7432 14.5064C48.7172 14.6538 48.6435 14.7794 48.5222 14.8834C48.4095 14.9874 48.2752 15.0524 48.1192 15.0784C47.9632 15.1044 47.8072 15.0827 47.6512 15.0134C47.5039 14.9528 47.3782 14.8314 47.2742 14.6494L46.4032 13.1284C46.2905 12.9291 46.1779 12.7774 46.0652 12.6734C45.9612 12.5608 45.8399 12.4828 45.7012 12.4394C45.5712 12.3961 45.4109 12.3744 45.2202 12.3744H44.4142V14.2724C44.4142 14.5411 44.3449 14.7491 44.2062 14.8964C44.0675 15.0351 43.8682 15.1044 43.6082 15.1044ZM52.1569 15.1304C51.6976 15.1304 51.2859 15.0437 50.9219 14.8704C50.5666 14.6884 50.2849 14.4458 50.0769 14.1424C49.8776 13.8391 49.7779 13.4968 49.7779 13.1154C49.7779 12.6474 49.8993 12.2791 50.1419 12.0104C50.3846 11.7331 50.7789 11.5338 51.3249 11.4124C51.8709 11.2911 52.6033 11.2304 53.5219 11.2304H54.1719V12.1664H53.5349C52.9976 12.1664 52.5686 12.1924 52.2479 12.2444C51.9273 12.2964 51.6976 12.3874 51.5589 12.5174C51.4289 12.6388 51.3639 12.8121 51.3639 13.0374C51.3639 13.3234 51.4636 13.5574 51.6629 13.7394C51.8623 13.9214 52.1396 14.0124 52.4949 14.0124C52.7809 14.0124 53.0323 13.9474 53.2489 13.8174C53.4743 13.6788 53.6519 13.4924 53.7819 13.2584C53.9119 13.0244 53.9769 12.7558 53.9769 12.4524V10.9574C53.9769 10.5241 53.8816 10.2121 53.6909 10.0214C53.5003 9.83078 53.1796 9.73545 52.7289 9.73545C52.4776 9.73545 52.2046 9.76578 51.9099 9.82645C51.6239 9.88712 51.3206 9.99112 50.9999 10.1384C50.8353 10.2164 50.6879 10.2381 50.5579 10.2034C50.4366 10.1688 50.3413 10.0994 50.2719 9.99545C50.2026 9.88278 50.1679 9.76145 50.1679 9.63145C50.1679 9.50145 50.2026 9.37578 50.2719 9.25445C50.3413 9.12445 50.4583 9.02912 50.6229 8.96845C51.0216 8.80378 51.4029 8.68678 51.7669 8.61745C52.1396 8.54812 52.4776 8.51345 52.7809 8.51345C53.4049 8.51345 53.9163 8.60878 54.3149 8.79945C54.7223 8.99012 55.0256 9.28045 55.2249 9.67045C55.4243 10.0518 55.5239 10.5458 55.5239 11.1524V14.2724C55.5239 14.5411 55.4589 14.7491 55.3289 14.8964C55.1989 15.0351 55.0126 15.1044 54.7699 15.1044C54.5273 15.1044 54.3366 15.0351 54.1979 14.8964C54.0679 14.7491 54.0029 14.5411 54.0029 14.2724V13.6484H54.1069C54.0463 13.9518 53.9249 14.2161 53.7429 14.4414C53.5696 14.6581 53.3486 14.8271 53.0799 14.9484C52.8113 15.0697 52.5036 15.1304 52.1569 15.1304Z" fill="white"/>
</svg>
