<svg width="63" height="86" viewBox="0 0 63 86" fill="none" xmlns="http://www.w3.org/2000/svg">
<g clip-path="url(#clip0_1283_8936)">
<mask id="mask0_1283_8936" style="mask-type:luminance" maskUnits="userSpaceOnUse" x="0" y="0" width="63" height="86">
<path d="M52 0H11C4.92487 0 0 4.92487 0 11V75C0 81.0751 4.92487 86 11 86H52C58.0751 86 63 81.0751 63 75V11C63 4.92487 58.0751 0 52 0Z" fill="white"/>
</mask>
<g mask="url(#mask0_1283_8936)">
<path d="M16.5 87C42.1812 87 63 66.1812 63 40.5C63 14.8188 42.1812 -6 16.5 -6C-9.18124 -6 -30 14.8188 -30 40.5C-30 66.1812 -9.18124 87 16.5 87Z" fill="#FBF5E1"/>
<mask id="mask1_1283_8936" style="mask-type:alpha" maskUnits="userSpaceOnUse" x="0" y="-1" width="62" height="87">
<path d="M61.625 -1H0V86H61.625V-1Z" fill="#D9D9D9"/>
</mask>
<g mask="url(#mask1_1283_8936)">
<path d="M7.24993 66.7875H-1.45007C-2.96048 66.7875 -4.24434 66.2589 -5.30163 65.2016C-6.35892 64.1443 -6.88757 62.8604 -6.88757 61.35V52.65L-13.2313 46.3063C-13.7751 45.7625 -14.1678 45.1583 -14.4095 44.4938C-14.6511 43.8292 -14.772 43.1646 -14.772 42.5C-14.772 41.8354 -14.6511 41.1708 -14.4095 40.5062C-14.1678 39.8417 -13.7751 39.2375 -13.2313 38.6938L-6.88757 32.35V23.65C-6.88757 22.1396 -6.35892 20.8557 -5.30163 19.7984C-4.24434 18.7411 -2.96048 18.2125 -1.45007 18.2125H7.24993L13.5937 11.8688C14.1374 11.325 14.7416 10.9323 15.4062 10.6906C16.0707 10.449 16.7353 10.3281 17.3999 10.3281C18.0645 10.3281 18.7291 10.449 19.3937 10.6906C20.0582 10.9323 20.6624 11.325 21.2062 11.8688L27.5499 18.2125H36.2499C37.7603 18.2125 39.0442 18.7411 40.1015 19.7984C41.1588 20.8557 41.6874 22.1396 41.6874 23.65V32.35L48.0312 38.6938C48.5749 39.2375 48.9676 39.8417 49.2093 40.5062C49.4509 41.1708 49.5718 41.8354 49.5718 42.5C49.5718 43.1646 49.4509 43.8292 49.2093 44.4938C48.9676 45.1583 48.5749 45.7625 48.0312 46.3063L41.6874 52.65V61.35C41.6874 62.8604 41.1588 64.1443 40.1015 65.2016C39.0442 66.2589 37.7603 66.7875 36.2499 66.7875H27.5499L21.2062 73.1313C20.6624 73.675 20.0582 74.0677 19.3937 74.3094C18.7291 74.551 18.0645 74.6719 17.3999 74.6719C16.7353 74.6719 16.0707 74.551 15.4062 74.3094C14.7416 74.0677 14.1374 73.675 13.5937 73.1313L7.24993 66.7875ZM8.33743 64.25L15.3155 71.2281C15.8593 71.7719 16.5541 72.0437 17.3999 72.0437C18.2457 72.0437 18.9405 71.7719 19.4843 71.2281L26.4624 64.25H36.2499C37.0957 64.25 37.7905 63.9781 38.3343 63.4344C38.878 62.8906 39.1499 62.1958 39.1499 61.35V51.5625L46.128 44.5844C46.6718 44.0406 46.9436 43.3458 46.9436 42.5C46.9436 41.6542 46.6718 40.9594 46.128 40.4156L39.1499 33.4375V23.65C39.1499 22.8042 38.878 22.1094 38.3343 21.5656C37.7905 21.0219 37.0957 20.75 36.2499 20.75H26.4624L19.4843 13.7719C18.9405 13.2281 18.2457 12.9563 17.3999 12.9563C16.5541 12.9563 15.8593 13.2281 15.3155 13.7719L8.33743 20.75H-1.45007C-2.2959 20.75 -2.99069 21.0219 -3.53444 21.5656C-4.07819 22.1094 -4.35007 22.8042 -4.35007 23.65V33.4375L-11.3282 40.4156C-11.872 40.9594 -12.1438 41.6542 -12.1438 42.5C-12.1438 43.3458 -11.872 44.0406 -11.3282 44.5844L-4.35007 51.5625V61.35C-4.35007 62.1958 -4.07819 62.8906 -3.53444 63.4344C-2.99069 63.9781 -2.2959 64.25 -1.45007 64.25H8.33743Z" fill="#EFA971"/>
</g>
<path d="M12.2001 55.0331C12.0414 55.3278 11.8488 55.5204 11.6221 55.6111C11.3954 55.7244 11.1688 55.7471 10.9421 55.6791C10.7154 55.6338 10.5228 55.5204 10.3641 55.3391C10.2054 55.1804 10.1034 54.9764 10.0581 54.7271C10.0354 54.4778 10.1034 54.2058 10.2621 53.9111L23.3861 31.0631C23.5448 30.7684 23.7374 30.5758 23.9641 30.4851C24.1908 30.3718 24.4174 30.3491 24.6441 30.4171C24.8708 30.4624 25.0634 30.5758 25.2221 30.7571C25.3808 30.9384 25.4714 31.1538 25.4941 31.4031C25.5394 31.6524 25.4828 31.9131 25.3241 32.1851L12.2001 55.0331ZM9.68405 45.4111C7.87072 45.4111 6.45405 44.7651 5.43405 43.4731C4.41405 42.1811 3.90405 40.3791 3.90405 38.0671C3.90405 36.5258 4.13072 35.2111 4.58405 34.1231C5.06005 33.0351 5.72872 32.2078 6.59005 31.6411C7.45138 31.0518 8.48272 30.7571 9.68405 30.7571C11.4748 30.7571 12.8801 31.4031 13.9001 32.6951C14.9428 33.9644 15.4641 35.7551 15.4641 38.0671C15.4641 39.6084 15.2261 40.9231 14.7501 42.0111C14.2968 43.0991 13.6394 43.9378 12.7781 44.5271C11.9168 45.1164 10.8854 45.4111 9.68405 45.4111ZM9.68405 43.4051C10.3868 43.4051 10.9874 43.2011 11.4861 42.7931C12.0074 42.3851 12.4041 41.7844 12.6761 40.9911C12.9481 40.1978 13.0841 39.2231 13.0841 38.0671C13.0841 36.2991 12.7781 34.9731 12.1661 34.0891C11.5541 33.2051 10.7268 32.7631 9.68405 32.7631C8.98138 32.7631 8.36938 32.9671 7.84805 33.3751C7.34938 33.7604 6.96405 34.3498 6.69205 35.1431C6.42005 35.9138 6.28405 36.8884 6.28405 38.0671C6.28405 39.8351 6.57872 41.1725 7.16805 42.0792C7.78005 42.9632 8.61872 43.4051 9.68405 43.4051ZM25.9361 55.3051C24.1454 55.3051 22.7288 54.6591 21.6861 53.3671C20.6661 52.0751 20.1561 50.2731 20.1561 47.9611C20.1561 46.4198 20.3828 45.1051 20.8361 44.0171C21.3121 42.9291 21.9808 42.1018 22.8421 41.5351C23.7261 40.9458 24.7574 40.6511 25.9361 40.6511C27.7494 40.6511 29.1661 41.2971 30.1861 42.5891C31.2061 43.8584 31.7161 45.6491 31.7161 47.9611C31.7161 49.5024 31.4894 50.8284 31.0361 51.9391C30.5828 53.0271 29.9254 53.8658 29.0641 54.4551C28.2028 55.0218 27.1601 55.3051 25.9361 55.3051ZM25.9361 53.2991C26.6614 53.2991 27.2734 53.1064 27.7721 52.7211C28.2708 52.3131 28.6561 51.7124 28.9281 50.9191C29.2001 50.1258 29.3361 49.1398 29.3361 47.9611C29.3361 46.1931 29.0301 44.8671 28.4181 43.9831C27.8288 43.0991 27.0014 42.6571 25.9361 42.6571C25.2334 42.6571 24.6214 42.8611 24.1001 43.2691C23.6014 43.6544 23.2161 44.2438 22.9441 45.0371C22.6948 45.8078 22.5701 46.7824 22.5701 47.9611C22.5701 49.7518 22.8648 51.0891 23.4541 51.9731C24.0661 52.8571 24.8934 53.2991 25.9361 53.2991Z" fill="#EFA971"/>
</g>
</g>
<defs>
<clipPath id="clip0_1283_8936">
<rect width="63" height="86" fill="white"/>
</clipPath>
</defs>
</svg>
