<svg width="24" height="24" viewBox="0 0 24 24" fill="none" xmlns="http://www.w3.org/2000/svg">
<path d="M7.16699 23.6673C6.52533 23.6673 5.97602 23.4388 5.51908 22.9819C5.06213 22.525 4.83366 21.9757 4.83366 21.334C4.83366 20.6923 5.06213 20.143 5.51908 19.6861C5.97602 19.2291 6.52533 19.0007 7.16699 19.0007C7.80866 19.0007 8.35796 19.2291 8.81491 19.6861C9.27185 20.143 9.50033 20.6923 9.50033 21.334C9.50033 21.9757 9.27185 22.525 8.81491 22.9819C8.35796 23.4388 7.80866 23.6673 7.16699 23.6673ZM18.8337 23.6673C18.192 23.6673 17.6427 23.4388 17.1857 22.9819C16.7288 22.525 16.5003 21.9757 16.5003 21.334C16.5003 20.6923 16.7288 20.143 17.1857 19.6861C17.6427 19.2291 18.192 19.0007 18.8337 19.0007C19.4753 19.0007 20.0246 19.2291 20.4816 19.6861C20.9385 20.143 21.167 20.6923 21.167 21.334C21.167 21.9757 20.9385 22.525 20.4816 22.9819C20.0246 23.4388 19.4753 23.6673 18.8337 23.6673ZM6.17533 5.00065L8.97533 10.834H17.142L20.3503 5.00065H6.17533ZM5.06699 2.66732H22.2753C22.7225 2.66732 23.0628 2.86662 23.2962 3.26523C23.5295 3.66385 23.5392 4.06732 23.3253 4.47565L19.1837 11.9423C18.9698 12.3312 18.683 12.6326 18.3232 12.8465C17.9635 13.0604 17.5698 13.1673 17.142 13.1673H8.45033L7.16699 15.5007H20.0003C20.3309 15.5007 20.608 15.6125 20.8316 15.8361C21.0552 16.0597 21.167 16.3368 21.167 16.6673C21.167 16.9979 21.0552 17.275 20.8316 17.4986C20.608 17.7222 20.3309 17.834 20.0003 17.834H7.16699C6.29199 17.834 5.63088 17.45 5.18366 16.6819C4.73644 15.9138 4.71699 15.1507 5.12533 14.3923L6.70033 11.534L2.50033 2.66732H1.33366C1.0031 2.66732 0.72602 2.55551 0.502409 2.3319C0.278798 2.10829 0.166992 1.83121 0.166992 1.50065C0.166992 1.1701 0.278798 0.893012 0.502409 0.669401C0.72602 0.44579 1.0031 0.333984 1.33366 0.333984H3.22949C3.44338 0.333984 3.64755 0.392318 3.84199 0.508984C4.03644 0.625651 4.18227 0.790929 4.27949 1.00482L5.06699 2.66732Z" fill="#0E9940"/>
</svg>
