<svg xmlns="http://www.w3.org/2000/svg" style="display: none;">


    <symbol id="arrow-right" viewBox="0 0 24 24">
        <mask id="mask0_568_15087" style="mask-type:alpha" maskUnits="userSpaceOnUse" x="0" y="0" width="24" height="24">
            <rect x="24" width="24" height="24" transform="rotate(90 24 0)" />
        </mask>
        <g mask="url(#mask0_568_15087)">
            <path d="M7.70078 10.5C7.70078 10.3667 7.74661 10.25 7.83828 10.15C7.92995 10.05 8.05078 10 8.20078 10L15.8008 10C15.9508 10 16.0716 10.05 16.1633 10.15C16.2549 10.25 16.3008 10.3667 16.3008 10.5C16.3008 10.5333 16.2508 10.65 16.1508 10.85L12.5258 14.475C12.4424 14.5583 12.3591 14.6167 12.2758 14.65C12.1924 14.6833 12.1008 14.7 12.0008 14.7C11.9008 14.7 11.8091 14.6833 11.7258 14.65C11.6424 14.6167 11.5591 14.5583 11.4758 14.475L7.85078 10.85C7.80078 10.8 7.76328 10.7458 7.73828 10.6875C7.71328 10.6292 7.70078 10.5667 7.70078 10.5Z" />
        </g>
    </symbol>



    <symbol id="favorite" viewBox="0 0 32 32">
        <path d="M16.0003 27.0999C15.6892 27.0999 15.3725 27.0443 15.0503 26.9332C14.7281 26.8221 14.4448 26.6443 14.2003 26.3999L11.9003 24.2999C9.54477 22.1443 7.41699 20.0054 5.51699 17.8832C3.61699 15.761 2.66699 13.4221 2.66699 10.8665C2.66699 8.77765 3.36699 7.0332 4.76699 5.6332C6.16699 4.2332 7.91144 3.5332 10.0003 3.5332C11.1781 3.5332 12.2892 3.7832 13.3337 4.2832C14.3781 4.7832 15.267 5.46654 16.0003 6.3332C16.7337 5.46654 17.6225 4.7832 18.667 4.2832C19.7114 3.7832 20.8225 3.5332 22.0003 3.5332C24.0892 3.5332 25.8337 4.2332 27.2337 5.6332C28.6337 7.0332 29.3337 8.77765 29.3337 10.8665C29.3337 13.4221 28.3892 15.7665 26.5003 17.8999C24.6114 20.0332 22.467 22.1776 20.067 24.3332L17.8003 26.3999C17.5559 26.6443 17.2725 26.8221 16.9503 26.9332C16.6281 27.0443 16.3114 27.0999 16.0003 27.0999ZM14.7337 8.99987C14.0892 8.08876 13.4003 7.39431 12.667 6.91654C11.9337 6.43876 11.0448 6.19987 10.0003 6.19987C8.66699 6.19987 7.55588 6.64431 6.66699 7.5332C5.7781 8.42209 5.33366 9.5332 5.33366 10.8665C5.33366 12.0221 5.74477 13.2499 6.56699 14.5499C7.38921 15.8499 8.37255 17.111 9.51699 18.3332C10.6614 19.5554 11.8392 20.6999 13.0503 21.7665C14.2614 22.8332 15.2448 23.711 16.0003 24.3999C16.7559 23.711 17.7392 22.8332 18.9503 21.7665C20.1614 20.6999 21.3392 19.5554 22.4837 18.3332C23.6281 17.111 24.6114 15.8499 25.4337 14.5499C26.2559 13.2499 26.667 12.0221 26.667 10.8665C26.667 9.5332 26.2225 8.42209 25.3337 7.5332C24.4448 6.64431 23.3337 6.19987 22.0003 6.19987C20.9559 6.19987 20.067 6.43876 19.3337 6.91654C18.6003 7.39431 17.9114 8.08876 17.267 8.99987C17.1114 9.22209 16.9225 9.38876 16.7003 9.49987C16.4781 9.61098 16.2448 9.66654 16.0003 9.66654C15.7559 9.66654 15.5225 9.61098 15.3003 9.49987C15.0781 9.38876 14.8892 9.22209 14.7337 8.99987Z"/>
    </symbol>

    <symbol id="favorite-active" viewBox="0 0 32 32">
        <path d="M16.0001 27.1C15.689 27.1 15.3723 27.0444 15.0501 26.9333C14.7279 26.8222 14.4445 26.6444 14.2001 26.4L11.9001 24.3C9.54453 22.1444 7.41675 20.0055 5.51675 17.8833C3.61675 15.7611 2.66675 13.4222 2.66675 10.8667C2.66675 8.77777 3.36675 7.03333 4.76675 5.63333C6.16675 4.23333 7.91119 3.53333 10.0001 3.53333C11.1779 3.53333 12.289 3.78333 13.3334 4.28333C14.3779 4.78333 15.2667 5.46666 16.0001 6.33333C16.7334 5.46666 17.6223 4.78333 18.6667 4.28333C19.7112 3.78333 20.8223 3.53333 22.0001 3.53333C24.089 3.53333 25.8334 4.23333 27.2334 5.63333C28.6334 7.03333 29.3334 8.77777 29.3334 10.8667C29.3334 13.4222 28.389 15.7667 26.5001 17.9C24.6112 20.0333 22.4667 22.1778 20.0667 24.3333L17.8001 26.4C17.5556 26.6444 17.2723 26.8222 16.9501 26.9333C16.6279 27.0444 16.3112 27.1 16.0001 27.1Z"/>
    </symbol>


    <symbol id="person" viewBox="0 0 20 20">
        <path d="M9.99935 10.0013C8.71602 10.0013 7.61741 9.54436 6.70352 8.63047C5.78963 7.71658 5.33268 6.61797 5.33268 5.33464C5.33268 4.0513 5.78963 2.95269 6.70352 2.0388C7.61741 1.12491 8.71602 0.667969 9.99935 0.667969C11.2827 0.667969 12.3813 1.12491 13.2952 2.0388C14.2091 2.95269 14.666 4.0513 14.666 5.33464C14.666 6.61797 14.2091 7.71658 13.2952 8.63047C12.3813 9.54436 11.2827 10.0013 9.99935 10.0013ZM0.666016 17.0013V16.068C0.666016 15.4069 0.836155 14.7992 1.17643 14.2451C1.51671 13.6909 1.96879 13.268 2.53268 12.9763C3.73824 12.3735 4.96324 11.9214 6.20768 11.6201C7.45213 11.3187 8.71602 11.168 9.99935 11.168C11.2827 11.168 12.5466 11.3187 13.791 11.6201C15.0355 11.9214 16.2605 12.3735 17.466 12.9763C18.0299 13.268 18.482 13.6909 18.8223 14.2451C19.1625 14.7992 19.3327 15.4069 19.3327 16.068V17.0013C19.3327 17.643 19.1042 18.1923 18.6473 18.6492C18.1903 19.1062 17.641 19.3346 16.9993 19.3346H2.99935C2.35768 19.3346 1.80838 19.1062 1.35143 18.6492C0.894488 18.1923 0.666016 17.643 0.666016 17.0013ZM2.99935 17.0013H16.9993V16.068C16.9993 15.8541 16.9459 15.6596 16.8389 15.4846C16.732 15.3096 16.591 15.1735 16.416 15.0763C15.366 14.5513 14.3063 14.1576 13.2369 13.8951C12.1674 13.6326 11.0882 13.5013 9.99935 13.5013C8.91046 13.5013 7.83129 13.6326 6.76185 13.8951C5.6924 14.1576 4.63268 14.5513 3.58268 15.0763C3.40768 15.1735 3.26671 15.3096 3.15977 15.4846C3.05282 15.6596 2.99935 15.8541 2.99935 16.068V17.0013ZM9.99935 7.66797C10.641 7.66797 11.1903 7.4395 11.6473 6.98255C12.1042 6.52561 12.3327 5.9763 12.3327 5.33464C12.3327 4.69297 12.1042 4.14366 11.6473 3.68672C11.1903 3.22977 10.641 3.0013 9.99935 3.0013C9.35768 3.0013 8.80838 3.22977 8.35143 3.68672C7.89449 4.14366 7.66602 4.69297 7.66602 5.33464C7.66602 5.9763 7.89449 6.52561 8.35143 6.98255C8.80838 7.4395 9.35768 7.66797 9.99935 7.66797Z"/>
    </symbol>

    <symbol id="shopping-cart" viewBox="0 0 24 24">
        <path d="M7.16699 23.6673C6.52533 23.6673 5.97602 23.4388 5.51908 22.9819C5.06213 22.525 4.83366 21.9757 4.83366 21.334C4.83366 20.6923 5.06213 20.143 5.51908 19.6861C5.97602 19.2291 6.52533 19.0007 7.16699 19.0007C7.80866 19.0007 8.35796 19.2291 8.81491 19.6861C9.27185 20.143 9.50033 20.6923 9.50033 21.334C9.50033 21.9757 9.27185 22.525 8.81491 22.9819C8.35796 23.4388 7.80866 23.6673 7.16699 23.6673ZM18.8337 23.6673C18.192 23.6673 17.6427 23.4388 17.1857 22.9819C16.7288 22.525 16.5003 21.9757 16.5003 21.334C16.5003 20.6923 16.7288 20.143 17.1857 19.6861C17.6427 19.2291 18.192 19.0007 18.8337 19.0007C19.4753 19.0007 20.0246 19.2291 20.4816 19.6861C20.9385 20.143 21.167 20.6923 21.167 21.334C21.167 21.9757 20.9385 22.525 20.4816 22.9819C20.0246 23.4388 19.4753 23.6673 18.8337 23.6673ZM6.17533 5.00065L8.97533 10.834H17.142L20.3503 5.00065H6.17533ZM5.06699 2.66732H22.2753C22.7225 2.66732 23.0628 2.86662 23.2962 3.26523C23.5295 3.66385 23.5392 4.06732 23.3253 4.47565L19.1837 11.9423C18.9698 12.3312 18.683 12.6326 18.3232 12.8465C17.9635 13.0604 17.5698 13.1673 17.142 13.1673H8.45033L7.16699 15.5007H20.0003C20.3309 15.5007 20.608 15.6125 20.8316 15.8361C21.0552 16.0597 21.167 16.3368 21.167 16.6673C21.167 16.9979 21.0552 17.275 20.8316 17.4986C20.608 17.7222 20.3309 17.834 20.0003 17.834H7.16699C6.29199 17.834 5.63088 17.45 5.18366 16.6819C4.73644 15.9138 4.71699 15.1507 5.12533 14.3923L6.70033 11.534L2.50033 2.66732H1.33366C1.0031 2.66732 0.72602 2.55551 0.502409 2.3319C0.278798 2.10829 0.166992 1.83121 0.166992 1.50065C0.166992 1.1701 0.278798 0.893012 0.502409 0.669401C0.72602 0.44579 1.0031 0.333984 1.33366 0.333984H3.22949C3.44338 0.333984 3.64755 0.392318 3.84199 0.508984C4.03644 0.625651 4.18227 0.790929 4.27949 1.00482L5.06699 2.66732Z" />
    </symbol>

    <symbol id="search" viewBox="0 0 21 21">
        <path d="M8.08333 15.6667C5.96389 15.6667 4.17014 14.9326 2.70208 13.4646C1.23403 11.9965 0.5 10.2028 0.5 8.08333C0.5 5.96389 1.23403 4.17014 2.70208 2.70208C4.17014 1.23403 5.96389 0.5 8.08333 0.5C10.2028 0.5 11.9965 1.23403 13.4646 2.70208C14.9326 4.17014 15.6667 5.96389 15.6667 8.08333C15.6667 8.93889 15.5306 9.74583 15.2583 10.5042C14.9861 11.2625 14.6167 11.9333 14.15 12.5167L20.6833 19.05C20.8972 19.2639 21.0042 19.5361 21.0042 19.8667C21.0042 20.1972 20.8972 20.4694 20.6833 20.6833C20.4694 20.8972 20.1972 21.0042 19.8667 21.0042C19.5361 21.0042 19.2639 20.8972 19.05 20.6833L12.5167 14.15C11.9333 14.6167 11.2625 14.9861 10.5042 15.2583C9.74583 15.5306 8.93889 15.6667 8.08333 15.6667ZM8.08333 13.3333C9.54167 13.3333 10.7812 12.8229 11.8021 11.8021C12.8229 10.7812 13.3333 9.54167 13.3333 8.08333C13.3333 6.625 12.8229 5.38542 11.8021 4.36458C10.7812 3.34375 9.54167 2.83333 8.08333 2.83333C6.625 2.83333 5.38542 3.34375 4.36458 4.36458C3.34375 5.38542 2.83333 6.625 2.83333 8.08333C2.83333 9.54167 3.34375 10.7812 4.36458 11.8021C5.38542 12.8229 6.625 13.3333 8.08333 13.3333Z"/>
    </symbol>

    <symbol id="plus" viewBox="0 0 16 16">
        <path d="M8 4a.5.5 0 0 1 .5.5v3h3a.5.5 0 0 1 0 1h-3v3a.5.5 0 0 1-1 0v-3h-3a.5.5 0 0 1 0-1h3v-3A.5.5 0 0 1 8 4"/>
    </symbol>

    <symbol id="minus" viewBox="0 0 16 16">
        <path d="M4 8a.5.5 0 0 1 .5-.5h7a.5.5 0 0 1 0 1h-7A.5.5 0 0 1 4 8"/>
    </symbol>

    <symbol id="star" viewBox="0 0 16 16">
        <path d="M8.00017 11.5167L5.23351 13.1834C5.11128 13.2611 4.98351 13.2945 4.85017 13.2834C4.71684 13.2723 4.60017 13.2278 4.50017 13.15C4.40017 13.0723 4.3224 12.975 4.26684 12.8584C4.21128 12.7417 4.20017 12.6111 4.23351 12.4667L4.96684 9.3167L2.51684 7.20003C2.40573 7.10003 2.33628 6.98614 2.30851 6.85836C2.28073 6.73058 2.28906 6.60558 2.33351 6.48336C2.37795 6.36114 2.44462 6.26114 2.53351 6.18336C2.6224 6.10558 2.74462 6.05558 2.90017 6.03336L6.13351 5.75003L7.38351 2.78336C7.43906 2.65003 7.52517 2.55003 7.64184 2.48336C7.75851 2.4167 7.87795 2.38336 8.00017 2.38336C8.1224 2.38336 8.24184 2.4167 8.35851 2.48336C8.47517 2.55003 8.56128 2.65003 8.61684 2.78336L9.86684 5.75003L13.1002 6.03336C13.2557 6.05558 13.378 6.10558 13.4668 6.18336C13.5557 6.26114 13.6224 6.36114 13.6668 6.48336C13.7113 6.60558 13.7196 6.73058 13.6918 6.85836C13.6641 6.98614 13.5946 7.10003 13.4835 7.20003L11.0335 9.3167L11.7668 12.4667C11.8002 12.6111 11.7891 12.7417 11.7335 12.8584C11.678 12.975 11.6002 13.0723 11.5002 13.15C11.4002 13.2278 11.2835 13.2723 11.1502 13.2834C11.0168 13.2945 10.8891 13.2611 10.7668 13.1834L8.00017 11.5167Z"/>
    </symbol>

    <symbol id="star-empty" viewBox="0 0 16 16">
        <path d="M5.89968 11.2171L7.99968 9.95046L10.0997 11.2338L9.54968 8.83379L11.3997 7.23379L8.96635 7.01712L7.99968 4.75046L7.03302 7.00046L4.59968 7.21712L6.44968 8.83379L5.89968 11.2171ZM7.99968 11.5171L5.23302 13.1838C5.1108 13.2616 4.98302 13.2949 4.84968 13.2838C4.71635 13.2727 4.59968 13.2282 4.49968 13.1505C4.39968 13.0727 4.32191 12.9755 4.26635 12.8588C4.2108 12.7421 4.19968 12.6116 4.23302 12.4671L4.96635 9.31712L2.51635 7.20046C2.40524 7.10046 2.3358 6.98657 2.30802 6.85879C2.28024 6.73101 2.28857 6.60601 2.33302 6.48379C2.37746 6.36157 2.44413 6.26157 2.53302 6.18379C2.62191 6.10601 2.74413 6.05601 2.89968 6.03379L6.13302 5.75046L7.38302 2.78379C7.43857 2.65046 7.52469 2.55046 7.64135 2.48379C7.75802 2.41712 7.87746 2.38379 7.99968 2.38379C8.12191 2.38379 8.24135 2.41712 8.35802 2.48379C8.47469 2.55046 8.5608 2.65046 8.61635 2.78379L9.86635 5.75046L13.0997 6.03379C13.2552 6.05601 13.3775 6.10601 13.4664 6.18379C13.5552 6.26157 13.6219 6.36157 13.6664 6.48379C13.7108 6.60601 13.7191 6.73101 13.6914 6.85879C13.6636 6.98657 13.5941 7.10046 13.483 7.20046L11.033 9.31712L11.7664 12.4671C11.7997 12.6116 11.7886 12.7421 11.733 12.8588C11.6775 12.9755 11.5997 13.0727 11.4997 13.1505C11.3997 13.2282 11.283 13.2727 11.1497 13.2838C11.0164 13.2949 10.8886 13.2616 10.7664 13.1838L7.99968 11.5171Z"/>
    </symbol>

    <symbol id="added-to-cart" viewBox="0 0 20 20">
        <path d="M9.99976 19.9998C8.61642 19.9998 7.31642 19.7373 6.09976 19.2123C4.88309 18.6873 3.82476 17.9748 2.92476 17.0748C2.02476 16.1748 1.31226 15.1164 0.787256 13.8998C0.262256 12.6831 -0.000244141 11.3831 -0.000244141 9.99976C-0.000244141 8.61642 0.262256 7.31642 0.787256 6.09976C1.31226 4.88309 2.02476 3.82476 2.92476 2.92476C3.82476 2.02476 4.88309 1.31226 6.09976 0.787256C7.31642 0.262256 8.61642 -0.000244141 9.99976 -0.000244141C10.7998 -0.000244141 11.5789 0.0914225 12.3373 0.274756C13.0956 0.458089 13.8248 0.724756 14.5248 1.07476C14.7748 1.20809 14.9373 1.40809 15.0123 1.67476C15.0873 1.94142 15.0414 2.19142 14.8748 2.42476C14.7081 2.65809 14.4873 2.80809 14.2123 2.87476C13.9373 2.94142 13.6664 2.90809 13.3998 2.77476C12.8664 2.52476 12.3123 2.33309 11.7373 2.19976C11.1623 2.06642 10.5831 1.99976 9.99976 1.99976C7.78309 1.99976 5.89559 2.77892 4.33726 4.33726C2.77892 5.89559 1.99976 7.78309 1.99976 9.99976C1.99976 12.2164 2.77892 14.1039 4.33726 15.6623C5.89559 17.2206 7.78309 17.9998 9.99976 17.9998C12.2164 17.9998 14.1039 17.2206 15.6623 15.6623C17.2206 14.1039 17.9998 12.2164 17.9998 9.99976C17.9998 9.86642 17.9956 9.73726 17.9873 9.61226C17.9789 9.48726 17.9664 9.35809 17.9498 9.22476C17.9164 8.94142 17.9706 8.67059 18.1123 8.41226C18.2539 8.15392 18.4664 7.98309 18.7498 7.89976C19.0164 7.81642 19.2664 7.84142 19.4998 7.97476C19.7331 8.10809 19.8664 8.30809 19.8998 8.57476C19.9331 8.80809 19.9581 9.04142 19.9748 9.27476C19.9914 9.50809 19.9998 9.74976 19.9998 9.99976C19.9998 11.3831 19.7373 12.6831 19.2123 13.8998C18.6873 15.1164 17.9748 16.1748 17.0748 17.0748C16.1748 17.9748 15.1164 18.6873 13.8998 19.2123C12.6831 19.7373 11.3831 19.9998 9.99976 19.9998ZM8.59976 11.7998L17.8998 2.47476C18.0831 2.29142 18.3123 2.19559 18.5873 2.18726C18.8623 2.17892 19.0998 2.27476 19.2998 2.47476C19.4831 2.65809 19.5748 2.89142 19.5748 3.17476C19.5748 3.45809 19.4831 3.69142 19.2998 3.87476L9.29976 13.8998C9.09976 14.0998 8.86642 14.1998 8.59976 14.1998C8.33309 14.1998 8.09976 14.0998 7.89976 13.8998L5.04976 11.0498C4.86642 10.8664 4.77476 10.6331 4.77476 10.3498C4.77476 10.0664 4.86642 9.83309 5.04976 9.64976C5.23309 9.46642 5.46642 9.37476 5.74976 9.37476C6.03309 9.37476 6.26642 9.46642 6.44976 9.64976L8.59976 11.7998Z"/>
    </symbol>


    <symbol id="remove" viewBox="0 0 16 16">
        <path d="M4.26683 12.6673L3.3335 11.734L7.06683 8.00065L3.3335 4.26732L4.26683 3.33398L8.00016 7.06732L11.7335 3.33398L12.6668 4.26732L8.9335 8.00065L12.6668 11.734L11.7335 12.6673L8.00016 8.93398L4.26683 12.6673Z"/>
    </symbol>

</svg>