<svg width="16" height="16" viewBox="0 0 16 16" fill="none" xmlns="http://www.w3.org/2000/svg">
<mask id="mask0_244_8174" style="mask-type:alpha" maskUnits="userSpaceOnUse" x="0" y="0" width="16" height="16">
<rect width="16" height="16" fill="#D9D9D9"/>
</mask>
<g mask="url(#mask0_244_8174)">
<path d="M5.89968 11.2171L7.99968 9.95046L10.0997 11.2338L9.54968 8.83379L11.3997 7.23379L8.96635 7.01712L7.99968 4.75046L7.03302 7.00046L4.59968 7.21712L6.44968 8.83379L5.89968 11.2171ZM7.99968 11.5171L5.23302 13.1838C5.1108 13.2616 4.98302 13.2949 4.84968 13.2838C4.71635 13.2727 4.59968 13.2282 4.49968 13.1505C4.39968 13.0727 4.32191 12.9755 4.26635 12.8588C4.2108 12.7421 4.19968 12.6116 4.23302 12.4671L4.96635 9.31712L2.51635 7.20046C2.40524 7.10046 2.3358 6.98657 2.30802 6.85879C2.28024 6.73101 2.28857 6.60601 2.33302 6.48379C2.37746 6.36157 2.44413 6.26157 2.53302 6.18379C2.62191 6.10601 2.74413 6.05601 2.89968 6.03379L6.13302 5.75046L7.38302 2.78379C7.43857 2.65046 7.52469 2.55046 7.64135 2.48379C7.75802 2.41712 7.87746 2.38379 7.99968 2.38379C8.12191 2.38379 8.24135 2.41712 8.35802 2.48379C8.47469 2.55046 8.5608 2.65046 8.61635 2.78379L9.86635 5.75046L13.0997 6.03379C13.2552 6.05601 13.3775 6.10601 13.4664 6.18379C13.5552 6.26157 13.6219 6.36157 13.6664 6.48379C13.7108 6.60601 13.7191 6.73101 13.6914 6.85879C13.6636 6.98657 13.5941 7.10046 13.483 7.20046L11.033 9.31712L11.7664 12.4671C11.7997 12.6116 11.7886 12.7421 11.733 12.8588C11.6775 12.9755 11.5997 13.0727 11.4997 13.1505C11.3997 13.2282 11.283 13.2727 11.1497 13.2838C11.0164 13.2949 10.8886 13.2616 10.7664 13.1838L7.99968 11.5171Z" fill="#EFA971"/>
</g>
</svg>
