<svg width="32" height="32" viewBox="0 0 32 32" fill="none" xmlns="http://www.w3.org/2000/svg">
<mask id="mask0_1124_2074" style="mask-type:alpha" maskUnits="userSpaceOnUse" x="0" y="0" width="32" height="32">
<rect width="32" height="32" fill="#D9D9D9"/>
</mask>
<g mask="url(#mask0_1124_2074)">
<path d="M11.8013 22.4323L16.0013 19.899L20.2013 22.4656L19.1013 17.6656L22.8013 14.4656L17.9347 14.0323L16.0013 9.49896L14.068 13.999L9.20132 14.4323L12.9013 17.6656L11.8013 22.4323ZM16.0013 23.0323L10.468 26.3656C10.2235 26.5212 9.96799 26.5878 9.70132 26.5656C9.43466 26.5434 9.20132 26.4545 9.00132 26.299C8.80132 26.1434 8.64577 25.949 8.53466 25.7156C8.42354 25.4823 8.40132 25.2212 8.46799 24.9323L9.93466 18.6323L5.03466 14.399C4.81243 14.199 4.67354 13.9712 4.61799 13.7156C4.56243 13.4601 4.5791 13.2101 4.66799 12.9656C4.75688 12.7212 4.89021 12.5212 5.06799 12.3656C5.24577 12.2101 5.49021 12.1101 5.80132 12.0656L12.268 11.499L14.768 5.56562C14.8791 5.29896 15.0513 5.09896 15.2847 4.96562C15.518 4.83229 15.7569 4.76562 16.0013 4.76562C16.2458 4.76562 16.4847 4.83229 16.718 4.96562C16.9513 5.09896 17.1235 5.29896 17.2347 5.56562L19.7347 11.499L26.2013 12.0656C26.5124 12.1101 26.7569 12.2101 26.9347 12.3656C27.1124 12.5212 27.2458 12.7212 27.3347 12.9656C27.4235 13.2101 27.4402 13.4601 27.3847 13.7156C27.3291 13.9712 27.1902 14.199 26.968 14.399L22.068 18.6323L23.5347 24.9323C23.6013 25.2212 23.5791 25.4823 23.468 25.7156C23.3569 25.949 23.2013 26.1434 23.0013 26.299C22.8013 26.4545 22.568 26.5434 22.3013 26.5656C22.0347 26.5878 21.7791 26.5212 21.5347 26.3656L16.0013 23.0323Z" fill="#EFA971"/>
</g>
</svg>
