<svg width="24" height="24" viewBox="0 0 24 24" fill="none" xmlns="http://www.w3.org/2000/svg">
<mask id="mask0_459_31802" style="mask-type:alpha" maskUnits="userSpaceOnUse" x="0" y="0" width="24" height="24">
<rect width="24" height="24" fill="#D9D9D9"/>
</mask>
<g mask="url(#mask0_459_31802)">
<path d="M13.3498 12.0008L9.4498 8.10078C9.26647 7.91745 9.1748 7.68411 9.1748 7.40078C9.1748 7.11745 9.26647 6.88411 9.4498 6.70078C9.63314 6.51745 9.86647 6.42578 10.1498 6.42578C10.4331 6.42578 10.6665 6.51745 10.8498 6.70078L15.4498 11.3008C15.5498 11.4008 15.6206 11.5091 15.6623 11.6258C15.704 11.7424 15.7248 11.8674 15.7248 12.0008C15.7248 12.1341 15.704 12.2591 15.6623 12.3758C15.6206 12.4924 15.5498 12.6008 15.4498 12.7008L10.8498 17.3008C10.6665 17.4841 10.4331 17.5758 10.1498 17.5758C9.86647 17.5758 9.63314 17.4841 9.4498 17.3008C9.26647 17.1174 9.1748 16.8841 9.1748 16.6008C9.1748 16.3174 9.26647 16.0841 9.4498 15.9008L13.3498 12.0008Z" fill="black"/>
</g>
</svg>
