<svg width="24" height="24" viewBox="0 0 24 24" fill="none" xmlns="http://www.w3.org/2000/svg">
<mask id="mask0_946_9235" style="mask-type:alpha" maskUnits="userSpaceOnUse" x="0" y="0" width="24" height="24">
<rect width="24" height="24" transform="matrix(-4.37114e-08 1 1 4.37114e-08 0 0)" fill="#D9D9D9"/>
</mask>
<g mask="url(#mask0_946_9235)">
<path d="M16.2992 10.5C16.2992 10.3667 16.2534 10.25 16.1617 10.15C16.0701 10.05 15.9492 10 15.7992 10L8.19922 10C8.04922 10 7.92839 10.05 7.83672 10.15C7.74505 10.25 7.69922 10.3667 7.69922 10.5C7.69922 10.5333 7.74922 10.65 7.84922 10.85L11.4742 14.475C11.5576 14.5583 11.6409 14.6167 11.7242 14.65C11.8076 14.6833 11.8992 14.7 11.9992 14.7C12.0992 14.7 12.1909 14.6833 12.2742 14.65C12.3576 14.6167 12.4409 14.5583 12.5242 14.475L16.1492 10.85C16.1992 10.8 16.2367 10.7458 16.2617 10.6875C16.2867 10.6292 16.2992 10.5667 16.2992 10.5Z" fill="#0E9940"/>
</g>
</svg>
