<svg width="24" height="24" viewBox="0 0 24 24" fill="none" xmlns="http://www.w3.org/2000/svg">
<mask id="mask0_568_15087" style="mask-type:alpha" maskUnits="userSpaceOnUse" x="0" y="0" width="24" height="24">
<rect x="24" width="24" height="24" transform="rotate(90 24 0)" fill="#D9D9D9"/>
</mask>
<g mask="url(#mask0_568_15087)">
<path d="M7.70078 10.5C7.70078 10.3667 7.74661 10.25 7.83828 10.15C7.92995 10.05 8.05078 10 8.20078 10L15.8008 10C15.9508 10 16.0716 10.05 16.1633 10.15C16.2549 10.25 16.3008 10.3667 16.3008 10.5C16.3008 10.5333 16.2508 10.65 16.1508 10.85L12.5258 14.475C12.4424 14.5583 12.3591 14.6167 12.2758 14.65C12.1924 14.6833 12.1008 14.7 12.0008 14.7C11.9008 14.7 11.8091 14.6833 11.7258 14.65C11.6424 14.6167 11.5591 14.5583 11.4758 14.475L7.85078 10.85C7.80078 10.8 7.76328 10.7458 7.73828 10.6875C7.71328 10.6292 7.70078 10.5667 7.70078 10.5Z" fill="#0E9940"/>
</g>
</svg>
