<svg width="32" height="32" viewBox="0 0 32 32" fill="none" xmlns="http://www.w3.org/2000/svg">
<rect width="32" height="32" rx="16" fill="#EFA971"/>
<path d="M11.0002 22.6673C10.3057 22.6673 9.71544 22.4243 9.22933 21.9382C8.74322 21.452 8.50016 20.8618 8.50016 20.1673H7.66683C7.43072 20.1673 7.2328 20.0875 7.07308 19.9277C6.91336 19.768 6.8335 19.5701 6.8335 19.334V11.0007C6.8335 10.5423 6.99669 10.15 7.32308 9.82357C7.64947 9.49718 8.04183 9.33398 8.50016 9.33398H18.5002C18.9585 9.33398 19.3509 9.49718 19.6772 9.82357C20.0036 10.15 20.1668 10.5423 20.1668 11.0007V12.6673H21.8335C22.0974 12.6673 22.3474 12.7263 22.5835 12.8444C22.8196 12.9625 23.0141 13.1257 23.1668 13.334L25.0002 15.7715C25.0557 15.8409 25.0974 15.9173 25.1252 16.0007C25.1529 16.084 25.1668 16.1743 25.1668 16.2715V19.334C25.1668 19.5701 25.087 19.768 24.9272 19.9277C24.7675 20.0875 24.5696 20.1673 24.3335 20.1673H23.5002C23.5002 20.8618 23.2571 21.452 22.771 21.9382C22.2849 22.4243 21.6946 22.6673 21.0002 22.6673C20.3057 22.6673 19.7154 22.4243 19.2293 21.9382C18.7432 21.452 18.5002 20.8618 18.5002 20.1673H13.5002C13.5002 20.8618 13.2571 21.452 12.771 21.9382C12.2849 22.4243 11.6946 22.6673 11.0002 22.6673ZM11.0002 21.0007C11.2363 21.0007 11.4342 20.9208 11.5939 20.7611C11.7536 20.6013 11.8335 20.4034 11.8335 20.1673C11.8335 19.9312 11.7536 19.7333 11.5939 19.5736C11.4342 19.4138 11.2363 19.334 11.0002 19.334C10.7641 19.334 10.5661 19.4138 10.4064 19.5736C10.2467 19.7333 10.1668 19.9312 10.1668 20.1673C10.1668 20.4034 10.2467 20.6013 10.4064 20.7611C10.5661 20.9208 10.7641 21.0007 11.0002 21.0007ZM8.50016 18.5007H9.16683C9.40294 18.2507 9.67377 18.0493 9.97933 17.8965C10.2849 17.7437 10.6252 17.6673 11.0002 17.6673C11.3752 17.6673 11.7154 17.7437 12.021 17.8965C12.3266 18.0493 12.5974 18.2507 12.8335 18.5007H18.5002V11.0007H8.50016V18.5007ZM21.0002 21.0007C21.2363 21.0007 21.4342 20.9208 21.5939 20.7611C21.7536 20.6013 21.8335 20.4034 21.8335 20.1673C21.8335 19.9312 21.7536 19.7333 21.5939 19.5736C21.4342 19.4138 21.2363 19.334 21.0002 19.334C20.7641 19.334 20.5661 19.4138 20.4064 19.5736C20.2467 19.7333 20.1668 19.9312 20.1668 20.1673C20.1668 20.4034 20.2467 20.6013 20.4064 20.7611C20.5661 20.9208 20.7641 21.0007 21.0002 21.0007ZM20.1668 16.834H23.7085L21.8335 14.334H20.1668V16.834Z" fill="white"/>
</svg>
