<svg width="14" height="14" viewBox="0 0 14 14" fill="none" xmlns="http://www.w3.org/2000/svg">
<mask id="mask0_459_31998" style="mask-type:alpha" maskUnits="userSpaceOnUse" x="0" y="0" width="14" height="14">
<rect width="14" height="14" fill="#D9D9D9"/>
</mask>
<g mask="url(#mask0_459_31998)">
<path d="M5.04583 11.6667H3.5C3.17917 11.6667 2.90451 11.5524 2.67604 11.324C2.44757 11.0955 2.33333 10.8208 2.33333 10.5V8.95417L1.21042 7.81667C1.10347 7.7 1.02083 7.57118 0.9625 7.43021C0.904167 7.28924 0.875 7.14583 0.875 7C0.875 6.85417 0.904167 6.71076 0.9625 6.56979C1.02083 6.42882 1.10347 6.3 1.21042 6.18333L2.33333 5.04583V3.5C2.33333 3.17917 2.44757 2.90451 2.67604 2.67604C2.90451 2.44757 3.17917 2.33333 3.5 2.33333H5.04583L6.18333 1.21042C6.3 1.10347 6.42882 1.02083 6.56979 0.9625C6.71076 0.904167 6.85417 0.875 7 0.875C7.14583 0.875 7.28924 0.904167 7.43021 0.9625C7.57118 1.02083 7.7 1.10347 7.81667 1.21042L8.95417 2.33333H10.5C10.8208 2.33333 11.0955 2.44757 11.324 2.67604C11.5524 2.90451 11.6667 3.17917 11.6667 3.5V5.04583L12.7896 6.18333C12.8965 6.3 12.9792 6.42882 13.0375 6.56979C13.0958 6.71076 13.125 6.85417 13.125 7C13.125 7.14583 13.0958 7.28924 13.0375 7.43021C12.9792 7.57118 12.8965 7.7 12.7896 7.81667L11.6667 8.95417V10.5C11.6667 10.8208 11.5524 11.0955 11.324 11.324C11.0955 11.5524 10.8208 11.6667 10.5 11.6667H8.95417L7.81667 12.7896C7.7 12.8965 7.57118 12.9792 7.43021 13.0375C7.28924 13.0958 7.14583 13.125 7 13.125C6.85417 13.125 6.71076 13.0958 6.56979 13.0375C6.42882 12.9792 6.3 12.8965 6.18333 12.7896L5.04583 11.6667ZM5.54167 10.5L7 11.9583L8.45833 10.5H10.5V8.45833L11.9583 7L10.5 5.54167V3.5H8.45833L7 2.04167L5.54167 3.5H3.5V5.54167L2.04167 7L3.5 8.45833V10.5H5.54167Z" fill="white"/>
</g>
<path d="M6.201 8.56687C6.15044 8.65632 6.08627 8.71465 6.0085 8.74188C5.93072 8.77299 5.85489 8.77882 5.781 8.75938C5.70711 8.73993 5.64294 8.70299 5.5885 8.64854C5.53405 8.5941 5.501 8.52604 5.48933 8.44437C5.47766 8.36271 5.49711 8.27715 5.54766 8.18771L7.58933 4.67021C7.64377 4.57687 7.70794 4.5166 7.78183 4.48937C7.85572 4.45826 7.92961 4.45243 8.0035 4.47187C8.08127 4.49132 8.14544 4.53021 8.196 4.58854C8.25044 4.64299 8.2835 4.71104 8.29516 4.79271C8.31072 4.87049 8.29127 4.9541 8.23683 5.04354L6.201 8.56687ZM5.35516 7.00937C5.00516 7.00937 4.73294 6.89465 4.5385 6.66521C4.34794 6.43187 4.25266 6.12465 4.25266 5.74354C4.25266 5.48687 4.29739 5.26521 4.38683 5.07854C4.47627 4.89187 4.60266 4.74799 4.766 4.64687C4.92933 4.54576 5.12572 4.49521 5.35516 4.49521C5.70127 4.49521 5.96961 4.60993 6.16016 4.83937C6.35461 5.06493 6.45183 5.36632 6.45183 5.74354C6.45183 5.99632 6.40711 6.21799 6.31766 6.40854C6.23211 6.5991 6.10766 6.74687 5.94433 6.85187C5.781 6.95687 5.58461 7.00937 5.35516 7.00937ZM5.35516 6.36771C5.4135 6.36771 5.46211 6.34826 5.501 6.30937C5.54377 6.2666 5.57489 6.20049 5.59433 6.11104C5.61766 6.01771 5.62933 5.89521 5.62933 5.74354C5.62933 5.5141 5.60405 5.35465 5.5535 5.26521C5.50683 5.17576 5.44072 5.13104 5.35516 5.13104C5.29294 5.13104 5.24044 5.15049 5.19766 5.18937C5.15877 5.22437 5.12766 5.2866 5.10433 5.37604C5.08489 5.46549 5.07516 5.58799 5.07516 5.74354C5.07516 5.97687 5.0985 6.14021 5.14516 6.23354C5.19183 6.32299 5.26183 6.36771 5.35516 6.36771ZM8.43516 8.73604C8.08905 8.73604 7.81877 8.62132 7.62433 8.39187C7.43377 8.16243 7.3385 7.85715 7.3385 7.47604C7.3385 7.21549 7.38127 6.99187 7.46683 6.80521C7.55627 6.61854 7.68266 6.47465 7.846 6.37354C8.01322 6.27243 8.20961 6.22187 8.43516 6.22187C8.78127 6.22187 9.05155 6.3366 9.246 6.56604C9.44044 6.79549 9.53766 7.09882 9.53766 7.47604C9.53766 7.72882 9.49294 7.95049 9.4035 8.14104C9.31794 8.32771 9.1935 8.47354 9.03016 8.57854C8.86683 8.68354 8.6685 8.73604 8.43516 8.73604ZM8.43516 8.10021C8.49739 8.10021 8.54794 8.08076 8.58683 8.04187C8.62961 7.9991 8.66072 7.93299 8.68016 7.84354C8.7035 7.75021 8.71516 7.62771 8.71516 7.47604C8.71516 7.2466 8.68989 7.08715 8.63933 6.99771C8.59266 6.90826 8.52461 6.86354 8.43516 6.86354C8.37683 6.86354 8.32627 6.88299 8.2835 6.92187C8.24461 6.95687 8.2135 7.0191 8.19016 7.10854C8.17072 7.1941 8.161 7.3166 8.161 7.47604C8.161 7.70937 8.18433 7.87271 8.231 7.96604C8.27766 8.05549 8.34572 8.10021 8.43516 8.10021Z" fill="white"/>
</svg>
