<svg width="32" height="32" viewBox="0 0 32 32" fill="none" xmlns="http://www.w3.org/2000/svg">
<mask id="mask0_916_2271" style="mask-type:alpha" maskUnits="userSpaceOnUse" x="0" y="0" width="32" height="32">
<rect width="32" height="32" fill="#D9D9D9"/>
</mask>
<g mask="url(#mask0_916_2271)">
<path d="M16.0003 27.0999C15.6892 27.0999 15.3725 27.0443 15.0503 26.9332C14.7281 26.8221 14.4448 26.6443 14.2003 26.3999L11.9003 24.2999C9.54477 22.1443 7.41699 20.0054 5.51699 17.8832C3.61699 15.761 2.66699 13.4221 2.66699 10.8665C2.66699 8.77765 3.36699 7.0332 4.76699 5.6332C6.16699 4.2332 7.91144 3.5332 10.0003 3.5332C11.1781 3.5332 12.2892 3.7832 13.3337 4.2832C14.3781 4.7832 15.267 5.46654 16.0003 6.3332C16.7337 5.46654 17.6225 4.7832 18.667 4.2832C19.7114 3.7832 20.8225 3.5332 22.0003 3.5332C24.0892 3.5332 25.8337 4.2332 27.2337 5.6332C28.6337 7.0332 29.3337 8.77765 29.3337 10.8665C29.3337 13.4221 28.3892 15.7665 26.5003 17.8999C24.6114 20.0332 22.467 22.1776 20.067 24.3332L17.8003 26.3999C17.5559 26.6443 17.2725 26.8221 16.9503 26.9332C16.6281 27.0443 16.3114 27.0999 16.0003 27.0999ZM14.7337 8.99987C14.0892 8.08876 13.4003 7.39431 12.667 6.91654C11.9337 6.43876 11.0448 6.19987 10.0003 6.19987C8.66699 6.19987 7.55588 6.64431 6.66699 7.5332C5.7781 8.42209 5.33366 9.5332 5.33366 10.8665C5.33366 12.0221 5.74477 13.2499 6.56699 14.5499C7.38921 15.8499 8.37255 17.111 9.51699 18.3332C10.6614 19.5554 11.8392 20.6999 13.0503 21.7665C14.2614 22.8332 15.2448 23.711 16.0003 24.3999C16.7559 23.711 17.7392 22.8332 18.9503 21.7665C20.1614 20.6999 21.3392 19.5554 22.4837 18.3332C23.6281 17.111 24.6114 15.8499 25.4337 14.5499C26.2559 13.2499 26.667 12.0221 26.667 10.8665C26.667 9.5332 26.2225 8.42209 25.3337 7.5332C24.4448 6.64431 23.3337 6.19987 22.0003 6.19987C20.9559 6.19987 20.067 6.43876 19.3337 6.91654C18.6003 7.39431 17.9114 8.08876 17.267 8.99987C17.1114 9.22209 16.9225 9.38876 16.7003 9.49987C16.4781 9.61098 16.2448 9.66654 16.0003 9.66654C15.7559 9.66654 15.5225 9.61098 15.3003 9.49987C15.0781 9.38876 14.8892 9.22209 14.7337 8.99987Z" fill="#EFA971"/>
</g>
</svg>
