<svg width="28" height="28" viewBox="0 0 28 28" fill="none" xmlns="http://www.w3.org/2000/svg">
<path d="M26.32 14.293C26.32 13.383 26.2383 12.508 26.0867 11.668H14V16.6321H20.9067C20.6092 18.2363 19.705 19.5955 18.3458 20.5055V23.7255H22.4933C24.92 21.4913 26.32 18.2013 26.32 14.293Z" fill="#4285F4"/>
<path d="M13.9996 26.8325C17.4646 26.8325 20.3696 25.6833 22.4929 23.7233L18.3454 20.5033C17.1962 21.2733 15.7262 21.7283 13.9996 21.7283C10.6571 21.7283 7.82792 19.4708 6.81875 16.4375H2.53125V19.7625C4.64292 23.9567 8.98292 26.8325 13.9996 26.8325Z" fill="#34A853"/>
<path d="M6.81949 16.4399C6.56283 15.6699 6.41699 14.8474 6.41699 14.0016C6.41699 13.1558 6.56283 12.3333 6.81949 11.5633V8.23828H2.53199C1.63366 10.0266 1.1662 12.0003 1.16699 14.0016C1.16699 16.0724 1.66283 18.0324 2.53199 19.7649L6.81949 16.4399Z" fill="#FBBC05"/>
<path d="M13.9996 6.27214C15.8837 6.27214 17.5754 6.91964 18.9054 8.1913L22.5863 4.51047C20.3638 2.43964 17.4587 1.16797 13.9996 1.16797C8.98292 1.16797 4.64292 4.0438 2.53125 8.23797L6.81875 11.563C7.82792 8.52964 10.6571 6.27214 13.9996 6.27214Z" fill="#EA4335"/>
</svg>
