<svg width="14" height="14" viewBox="0 0 14 14" fill="none" xmlns="http://www.w3.org/2000/svg">
<mask id="mask0_459_32004" style="mask-type:alpha" maskUnits="userSpaceOnUse" x="0" y="0" width="14" height="14">
<rect width="14" height="14" fill="#D9D9D9"/>
</mask>
<g mask="url(#mask0_459_32004)">
<path d="M7.00016 12.8339C5.69739 12.8339 4.59391 12.3819 3.68975 11.4777C2.78558 10.5735 2.3335 9.47006 2.3335 8.16728C2.3335 7.06867 2.65919 6.01381 3.31058 5.0027C3.96197 3.99159 4.85641 3.10686 5.99391 2.34853C6.2078 2.2027 6.42898 2.19541 6.65745 2.32666C6.88593 2.45791 7.00016 2.65478 7.00016 2.91728V3.67561C7.00016 4.00617 7.1144 4.28325 7.34287 4.50686C7.57134 4.73047 7.85086 4.84228 8.18141 4.84228C8.34669 4.84228 8.50468 4.80582 8.65537 4.73291C8.80607 4.65999 8.93975 4.55547 9.05641 4.41936C9.13419 4.32214 9.23384 4.26138 9.35537 4.23707C9.4769 4.21277 9.59114 4.2395 9.69808 4.31728C10.3106 4.75478 10.7918 5.31381 11.1418 5.99436C11.4918 6.67492 11.6668 7.39923 11.6668 8.16728C11.6668 9.47006 11.2147 10.5735 10.3106 11.4777C9.40641 12.3819 8.30294 12.8339 7.00016 12.8339ZM3.50016 8.16728C3.50016 8.67284 3.60225 9.15166 3.80641 9.60374C4.01058 10.0558 4.30225 10.452 4.68141 10.7923C4.67169 10.7437 4.66683 10.6999 4.66683 10.661V10.5298C4.66683 10.2187 4.72516 9.927 4.84183 9.65478C4.9585 9.38256 5.12864 9.13464 5.35225 8.91103L7.00016 7.29228L8.64808 8.91103C8.87169 9.13464 9.04183 9.38256 9.1585 9.65478C9.27516 9.927 9.3335 10.2187 9.3335 10.5298V10.661C9.3335 10.6999 9.32864 10.7437 9.31891 10.7923C9.69808 10.452 9.98975 10.0558 10.1939 9.60374C10.3981 9.15166 10.5002 8.67284 10.5002 8.16728C10.5002 7.68117 10.4102 7.22179 10.2304 6.78916C10.0505 6.35652 9.79044 5.97006 9.45016 5.62978C9.25572 5.75617 9.05155 5.85096 8.83766 5.91416C8.62377 5.97735 8.40502 6.00895 8.18141 6.00895C7.57864 6.00895 7.05607 5.80964 6.6137 5.41103C6.17134 5.01242 5.91614 4.52145 5.84808 3.93811C5.08975 4.57978 4.50884 5.26277 4.10537 5.98707C3.7019 6.71138 3.50016 7.43811 3.50016 8.16728ZM7.00016 8.92561L6.16891 9.74228C6.06197 9.84922 5.97933 9.97075 5.921 10.1069C5.86266 10.243 5.8335 10.3839 5.8335 10.5298C5.8335 10.8409 5.94773 11.1083 6.1762 11.3319C6.40468 11.5555 6.67933 11.6673 7.00016 11.6673C7.321 11.6673 7.59565 11.5555 7.82412 11.3319C8.05259 11.1083 8.16683 10.8409 8.16683 10.5298C8.16683 10.3742 8.13766 10.2308 8.07933 10.0996C8.021 9.96832 7.93836 9.84922 7.83141 9.74228L7.00016 8.92561Z" fill="white"/>
</g>
</svg>
