<svg width="38" height="8" viewBox="0 0 38 8" fill="none" xmlns="http://www.w3.org/2000/svg">
<path d="M1.269 7.072C1.083 7.072 0.939 7.021 0.837 6.919C0.741 6.811 0.693 6.664 0.693 6.478V1.177C0.693 0.985 0.741 0.838 0.837 0.736C0.939 0.634 1.083 0.582999 1.269 0.582999C1.455 0.582999 1.596 0.634 1.692 0.736C1.794 0.838 1.845 0.985 1.845 1.177V3.301H5.112V1.177C5.112 0.985 5.16 0.838 5.256 0.736C5.358 0.634 5.502 0.582999 5.688 0.582999C5.874 0.582999 6.015 0.634 6.111 0.736C6.213 0.838 6.264 0.985 6.264 1.177V6.478C6.264 6.664 6.213 6.811 6.111 6.919C6.015 7.021 5.874 7.072 5.688 7.072C5.502 7.072 5.358 7.021 5.256 6.919C5.16 6.811 5.112 6.664 5.112 6.478V4.264H1.845V6.478C1.845 6.664 1.797 6.811 1.701 6.919C1.605 7.021 1.461 7.072 1.269 7.072ZM9.61594 7.09C9.15994 7.09 8.76394 6.997 8.42794 6.811C8.09194 6.625 7.83094 6.361 7.64494 6.019C7.45894 5.671 7.36594 5.263 7.36594 4.795C7.36594 4.441 7.41694 4.126 7.51894 3.85C7.62694 3.568 7.77994 3.328 7.97794 3.13C8.17594 2.926 8.41294 2.773 8.68894 2.671C8.96494 2.563 9.27394 2.509 9.61594 2.509C10.0719 2.509 10.4679 2.602 10.8039 2.788C11.1399 2.974 11.4009 3.238 11.5869 3.58C11.7729 3.922 11.8659 4.327 11.8659 4.795C11.8659 5.149 11.8119 5.467 11.7039 5.749C11.6019 6.031 11.4519 6.274 11.2539 6.478C11.0559 6.676 10.8189 6.829 10.5429 6.937C10.2669 7.039 9.95794 7.09 9.61594 7.09ZM9.61594 6.235C9.83794 6.235 10.0329 6.181 10.2009 6.073C10.3689 5.965 10.4979 5.806 10.5879 5.596C10.6839 5.38 10.7319 5.113 10.7319 4.795C10.7319 4.315 10.6299 3.958 10.4259 3.724C10.2219 3.484 9.95194 3.364 9.61594 3.364C9.39394 3.364 9.19894 3.418 9.03094 3.526C8.86294 3.628 8.73094 3.787 8.63494 4.003C8.54494 4.213 8.49994 4.477 8.49994 4.795C8.49994 5.269 8.60194 5.629 8.80594 5.875C9.00994 6.115 9.27994 6.235 9.61594 6.235ZM13.4665 7C13.2865 7 13.1485 6.952 13.0525 6.856C12.9565 6.76 12.9085 6.622 12.9085 6.442V3.157C12.9085 2.977 12.9565 2.839 13.0525 2.743C13.1485 2.647 13.2865 2.599 13.4665 2.599H15.2845C15.6625 2.599 15.9685 2.644 16.2025 2.734C16.4425 2.824 16.6165 2.956 16.7245 3.13C16.8325 3.298 16.8865 3.505 16.8865 3.751C16.8865 4.027 16.7905 4.261 16.5985 4.453C16.4125 4.639 16.1635 4.753 15.8515 4.795V4.669C16.2415 4.693 16.5355 4.804 16.7335 5.002C16.9375 5.2 17.0395 5.455 17.0395 5.767C17.0395 6.145 16.8955 6.445 16.6075 6.667C16.3195 6.889 15.9025 7 15.3565 7H13.4665ZM13.9525 6.307H15.2575C15.5035 6.307 15.6895 6.256 15.8155 6.154C15.9475 6.052 16.0135 5.902 16.0135 5.704C16.0135 5.506 15.9475 5.356 15.8155 5.254C15.6895 5.152 15.5035 5.101 15.2575 5.101H13.9525V6.307ZM13.9525 4.408H15.1765C15.3925 4.408 15.5605 4.36 15.6805 4.264C15.8005 4.162 15.8605 4.021 15.8605 3.841C15.8605 3.661 15.8005 3.526 15.6805 3.436C15.5605 3.34 15.3925 3.292 15.1765 3.292H13.9525V4.408ZM18.5458 7.072C18.4318 7.072 18.3358 7.051 18.2578 7.009C18.1798 6.967 18.1198 6.901 18.0778 6.811C18.0418 6.721 18.0238 6.607 18.0238 6.469V3.067C18.0238 2.893 18.0688 2.761 18.1588 2.671C18.2488 2.575 18.3748 2.527 18.5368 2.527C18.6988 2.527 18.8218 2.575 18.9058 2.671C18.9958 2.761 19.0408 2.893 19.0408 3.067V5.848H18.8068L21.0298 2.887C21.0958 2.803 21.1768 2.722 21.2728 2.644C21.3688 2.566 21.5008 2.527 21.6688 2.527C21.7828 2.527 21.8758 2.548 21.9478 2.59C22.0258 2.632 22.0828 2.698 22.1188 2.788C22.1608 2.872 22.1818 2.983 22.1818 3.121V6.532C22.1818 6.7 22.1368 6.832 22.0468 6.928C21.9628 7.024 21.8398 7.072 21.6778 7.072C21.5098 7.072 21.3808 7.024 21.2908 6.928C21.2068 6.832 21.1648 6.7 21.1648 6.532V3.742H21.4078L19.1758 6.712C19.1158 6.796 19.0378 6.877 18.9418 6.955C18.8518 7.033 18.7198 7.072 18.5458 7.072ZM24.0224 7.072C23.8424 7.072 23.7014 7.024 23.5994 6.928C23.5034 6.826 23.4554 6.682 23.4554 6.496V3.094C23.4554 2.902 23.5034 2.761 23.5994 2.671C23.7014 2.575 23.8424 2.527 24.0224 2.527C24.2024 2.527 24.3404 2.575 24.4364 2.671C24.5324 2.761 24.5804 2.902 24.5804 3.094V4.3H26.5244V3.094C26.5244 2.902 26.5724 2.761 26.6684 2.671C26.7644 2.575 26.9024 2.527 27.0824 2.527C27.2624 2.527 27.4004 2.575 27.4964 2.671C27.5984 2.761 27.6494 2.902 27.6494 3.094V6.496C27.6494 6.682 27.5984 6.826 27.4964 6.928C27.4004 7.024 27.2624 7.072 27.0824 7.072C26.9024 7.072 26.7644 7.024 26.6684 6.928C26.5724 6.826 26.5244 6.682 26.5244 6.496V5.182H24.5804V6.496C24.5804 6.682 24.5324 6.826 24.4364 6.928C24.3464 7.024 24.2084 7.072 24.0224 7.072ZM29.498 7.072C29.318 7.072 29.177 7.024 29.075 6.928C28.979 6.826 28.931 6.682 28.931 6.496V3.112C28.931 2.926 28.979 2.785 29.075 2.689C29.177 2.587 29.318 2.536 29.498 2.536C29.678 2.536 29.816 2.587 29.912 2.689C30.008 2.785 30.056 2.926 30.056 3.112V4.309H30.695L31.82 2.797C31.904 2.683 32 2.611 32.108 2.581C32.216 2.545 32.318 2.542 32.414 2.572C32.516 2.602 32.597 2.656 32.657 2.734C32.723 2.812 32.756 2.905 32.756 3.013C32.762 3.115 32.723 3.223 32.639 3.337L31.568 4.804L31.325 4.444C31.487 4.462 31.631 4.507 31.757 4.579C31.889 4.651 32.009 4.753 32.117 4.885C32.231 5.011 32.342 5.17 32.45 5.362L32.981 6.307C33.053 6.433 33.077 6.55 33.053 6.658C33.035 6.76 32.984 6.847 32.9 6.919C32.822 6.991 32.729 7.036 32.621 7.054C32.513 7.072 32.405 7.057 32.297 7.009C32.195 6.967 32.108 6.883 32.036 6.757L31.433 5.704C31.355 5.566 31.277 5.461 31.199 5.389C31.127 5.311 31.043 5.257 30.947 5.227C30.857 5.197 30.746 5.182 30.614 5.182H30.056V6.496C30.056 6.682 30.008 6.826 29.912 6.928C29.816 7.024 29.678 7.072 29.498 7.072ZM35.4163 7.09C35.0983 7.09 34.8133 7.03 34.5613 6.91C34.3153 6.784 34.1203 6.616 33.9763 6.406C33.8383 6.196 33.7693 5.959 33.7693 5.695C33.7693 5.371 33.8533 5.116 34.0213 4.93C34.1893 4.738 34.4623 4.6 34.8403 4.516C35.2183 4.432 35.7253 4.39 36.3613 4.39H36.8113V5.038H36.3703C35.9983 5.038 35.7013 5.056 35.4793 5.092C35.2573 5.128 35.0983 5.191 35.0023 5.281C34.9123 5.365 34.8673 5.485 34.8673 5.641C34.8673 5.839 34.9363 6.001 35.0743 6.127C35.2123 6.253 35.4043 6.316 35.6503 6.316C35.8483 6.316 36.0223 6.271 36.1723 6.181C36.3283 6.085 36.4513 5.956 36.5413 5.794C36.6313 5.632 36.6763 5.446 36.6763 5.236V4.201C36.6763 3.901 36.6103 3.685 36.4783 3.553C36.3463 3.421 36.1243 3.355 35.8123 3.355C35.6383 3.355 35.4493 3.376 35.2453 3.418C35.0473 3.46 34.8373 3.532 34.6153 3.634C34.5013 3.688 34.3993 3.703 34.3093 3.679C34.2253 3.655 34.1593 3.607 34.1113 3.535C34.0633 3.457 34.0393 3.373 34.0393 3.283C34.0393 3.193 34.0633 3.106 34.1113 3.022C34.1593 2.932 34.2403 2.866 34.3543 2.824C34.6303 2.71 34.8943 2.629 35.1463 2.581C35.4043 2.533 35.6383 2.509 35.8483 2.509C36.2803 2.509 36.6343 2.575 36.9103 2.707C37.1923 2.839 37.4023 3.04 37.5403 3.31C37.6783 3.574 37.7473 3.916 37.7473 4.336V6.496C37.7473 6.682 37.7023 6.826 37.6123 6.928C37.5223 7.024 37.3933 7.072 37.2253 7.072C37.0573 7.072 36.9253 7.024 36.8293 6.928C36.7393 6.826 36.6943 6.682 36.6943 6.496V6.064H36.7663C36.7243 6.274 36.6403 6.457 36.5143 6.613C36.3943 6.763 36.2413 6.88 36.0553 6.964C35.8693 7.048 35.6563 7.09 35.4163 7.09Z" fill="white"/>
</svg>
