<svg width="32" height="32" viewBox="0 0 32 32" fill="none" xmlns="http://www.w3.org/2000/svg">
<circle cx="16" cy="16" r="16" fill="#FBF5E1"/>
<path d="M12.14 15.44C11.7533 15.44 11.4533 15.34 11.24 15.14C11.04 14.94 10.94 14.6467 10.94 14.26C10.94 13.8733 11.04 13.58 11.24 13.38C11.4533 13.18 11.7533 13.08 12.14 13.08H19.86C20.2467 13.08 20.54 13.18 20.74 13.38C20.9533 13.58 21.06 13.8733 21.06 14.26C21.06 14.6467 20.9533 14.94 20.74 15.14C20.54 15.34 20.2467 15.44 19.86 15.44H12.14ZM12.14 19.44C11.7533 19.44 11.4533 19.34 11.24 19.14C11.04 18.9267 10.94 18.6333 10.94 18.26C10.94 17.8733 11.04 17.58 11.24 17.38C11.4533 17.18 11.7533 17.08 12.14 17.08H19.86C20.2467 17.08 20.54 17.18 20.74 17.38C20.9533 17.58 21.06 17.8733 21.06 18.26C21.06 18.6467 20.9533 18.94 20.74 19.14C20.54 19.34 20.2467 19.44 19.86 19.44H12.14Z" fill="#EFA971"/>
</svg>
