<svg width="32" height="33" viewBox="0 0 32 33" fill="none" xmlns="http://www.w3.org/2000/svg">
<circle cx="16" cy="16.5" r="16" fill="#FBF5E1"/>
<path d="M16 21.88C15.6 21.88 15.2933 21.7733 15.08 21.56C14.8667 21.3333 14.76 21.02 14.76 20.62V17.94H12.14C11.7533 17.94 11.4533 17.84 11.24 17.64C11.04 17.44 10.94 17.1467 10.94 16.76C10.94 16.3733 11.04 16.08 11.24 15.88C11.4533 15.68 11.7533 15.58 12.14 15.58H14.76V13C14.76 12.6 14.8667 12.2933 15.08 12.08C15.2933 11.8667 15.6067 11.76 16.02 11.76C16.42 11.76 16.72 11.8667 16.92 12.08C17.1333 12.2933 17.24 12.6 17.24 13V15.58H19.86C20.2467 15.58 20.54 15.68 20.74 15.88C20.9533 16.08 21.06 16.3733 21.06 16.76C21.06 17.1467 20.9533 17.44 20.74 17.64C20.54 17.84 20.2467 17.94 19.86 17.94H17.24V20.62C17.24 21.02 17.1333 21.3333 16.92 21.56C16.72 21.7733 16.4133 21.88 16 21.88Z" fill="#EFA971"/>
</svg>
