<svg width="62" height="87" viewBox="0 0 62 87" fill="none" xmlns="http://www.w3.org/2000/svg">
<mask id="mask0_459_35079" style="mask-type:alpha" maskUnits="userSpaceOnUse" x="0" y="0" width="62" height="87">
<rect width="61.625" height="87" fill="#D9D9D9"/>
</mask>
<g mask="url(#mask0_459_35079)">
<path d="M7.2499 67.7875H-1.4501C-2.96051 67.7875 -4.24437 67.2589 -5.30166 66.2016C-6.35895 65.1443 -6.8876 63.8604 -6.8876 62.35V53.65L-13.2313 47.3063C-13.7751 46.7625 -14.1678 46.1583 -14.4095 45.4938C-14.6511 44.8292 -14.772 44.1646 -14.772 43.5C-14.772 42.8354 -14.6511 42.1708 -14.4095 41.5062C-14.1678 40.8417 -13.7751 40.2375 -13.2313 39.6938L-6.8876 33.35V24.65C-6.8876 23.1396 -6.35895 21.8557 -5.30166 20.7984C-4.24437 19.7411 -2.96051 19.2125 -1.4501 19.2125H7.2499L13.5937 12.8688C14.1374 12.325 14.7416 11.9323 15.4062 11.6906C16.0707 11.449 16.7353 11.3281 17.3999 11.3281C18.0645 11.3281 18.7291 11.449 19.3937 11.6906C20.0582 11.9323 20.6624 12.325 21.2062 12.8688L27.5499 19.2125H36.2499C37.7603 19.2125 39.0442 19.7411 40.1015 20.7984C41.1588 21.8557 41.6874 23.1396 41.6874 24.65V33.35L48.0312 39.6938C48.5749 40.2375 48.9676 40.8417 49.2093 41.5062C49.4509 42.1708 49.5718 42.8354 49.5718 43.5C49.5718 44.1646 49.4509 44.8292 49.2093 45.4938C48.9676 46.1583 48.5749 46.7625 48.0312 47.3063L41.6874 53.65V62.35C41.6874 63.8604 41.1588 65.1443 40.1015 66.2016C39.0442 67.2589 37.7603 67.7875 36.2499 67.7875H27.5499L21.2062 74.1313C20.6624 74.675 20.0582 75.0677 19.3937 75.3094C18.7291 75.551 18.0645 75.6719 17.3999 75.6719C16.7353 75.6719 16.0707 75.551 15.4062 75.3094C14.7416 75.0677 14.1374 74.675 13.5937 74.1313L7.2499 67.7875ZM8.3374 65.25L15.3155 72.2281C15.8593 72.7719 16.5541 73.0437 17.3999 73.0437C18.2457 73.0437 18.9405 72.7719 19.4843 72.2281L26.4624 65.25H36.2499C37.0957 65.25 37.7905 64.9781 38.3343 64.4344C38.878 63.8906 39.1499 63.1958 39.1499 62.35V52.5625L46.128 45.5844C46.6718 45.0406 46.9436 44.3458 46.9436 43.5C46.9436 42.6542 46.6718 41.9594 46.128 41.4156L39.1499 34.4375V24.65C39.1499 23.8042 38.878 23.1094 38.3343 22.5656C37.7905 22.0219 37.0957 21.75 36.2499 21.75H26.4624L19.4843 14.7719C18.9405 14.2281 18.2457 13.9563 17.3999 13.9563C16.5541 13.9563 15.8593 14.2281 15.3155 14.7719L8.3374 21.75H-1.4501C-2.29593 21.75 -2.99072 22.0219 -3.53447 22.5656C-4.07822 23.1094 -4.3501 23.8042 -4.3501 24.65V34.4375L-11.3282 41.4156C-11.872 41.9594 -12.1438 42.6542 -12.1438 43.5C-12.1438 44.3458 -11.872 45.0406 -11.3282 45.5844L-4.3501 52.5625V62.35C-4.3501 63.1958 -4.07822 63.8906 -3.53447 64.4344C-2.99072 64.9781 -2.29593 65.25 -1.4501 65.25H8.3374Z" fill="#EFA971"/>
</g>
</svg>
