<svg width="20" height="20" viewBox="0 0 20 20" fill="none" xmlns="http://www.w3.org/2000/svg">
<path d="M9.99935 10.0013C8.71602 10.0013 7.61741 9.54436 6.70352 8.63047C5.78963 7.71658 5.33268 6.61797 5.33268 5.33464C5.33268 4.0513 5.78963 2.95269 6.70352 2.0388C7.61741 1.12491 8.71602 0.667969 9.99935 0.667969C11.2827 0.667969 12.3813 1.12491 13.2952 2.0388C14.2091 2.95269 14.666 4.0513 14.666 5.33464C14.666 6.61797 14.2091 7.71658 13.2952 8.63047C12.3813 9.54436 11.2827 10.0013 9.99935 10.0013ZM0.666016 17.0013V16.068C0.666016 15.4069 0.836155 14.7992 1.17643 14.2451C1.51671 13.6909 1.96879 13.268 2.53268 12.9763C3.73824 12.3735 4.96324 11.9214 6.20768 11.6201C7.45213 11.3187 8.71602 11.168 9.99935 11.168C11.2827 11.168 12.5466 11.3187 13.791 11.6201C15.0355 11.9214 16.2605 12.3735 17.466 12.9763C18.0299 13.268 18.482 13.6909 18.8223 14.2451C19.1625 14.7992 19.3327 15.4069 19.3327 16.068V17.0013C19.3327 17.643 19.1042 18.1923 18.6473 18.6492C18.1903 19.1062 17.641 19.3346 16.9993 19.3346H2.99935C2.35768 19.3346 1.80838 19.1062 1.35143 18.6492C0.894488 18.1923 0.666016 17.643 0.666016 17.0013ZM2.99935 17.0013H16.9993V16.068C16.9993 15.8541 16.9459 15.6596 16.8389 15.4846C16.732 15.3096 16.591 15.1735 16.416 15.0763C15.366 14.5513 14.3063 14.1576 13.2369 13.8951C12.1674 13.6326 11.0882 13.5013 9.99935 13.5013C8.91046 13.5013 7.83129 13.6326 6.76185 13.8951C5.6924 14.1576 4.63268 14.5513 3.58268 15.0763C3.40768 15.1735 3.26671 15.3096 3.15977 15.4846C3.05282 15.6596 2.99935 15.8541 2.99935 16.068V17.0013ZM9.99935 7.66797C10.641 7.66797 11.1903 7.4395 11.6473 6.98255C12.1042 6.52561 12.3327 5.9763 12.3327 5.33464C12.3327 4.69297 12.1042 4.14366 11.6473 3.68672C11.1903 3.22977 10.641 3.0013 9.99935 3.0013C9.35768 3.0013 8.80838 3.22977 8.35143 3.68672C7.89449 4.14366 7.66602 4.69297 7.66602 5.33464C7.66602 5.9763 7.89449 6.52561 8.35143 6.98255C8.80838 7.4395 9.35768 7.66797 9.99935 7.66797Z" fill="#0E9940"/>
</svg>
