<svg width="48" height="48" viewBox="0 0 48 48" fill="none" xmlns="http://www.w3.org/2000/svg">
<mask id="path-1-inside-1_1369_9750" fill="white">
<path fill-rule="evenodd" clip-rule="evenodd" d="M29.1431 12H18.8574V18.8574H12V29.1431H18.8574V36H29.1431V29.1431H36V18.8574H29.1431V12Z"/>
</mask>
<path d="M18.8574 12V10H16.8574V12H18.8574ZM29.1431 12H31.1431V10H29.1431V12ZM18.8574 18.8574V20.8574H20.8574V18.8574H18.8574ZM12 18.8574V16.8574H10V18.8574H12ZM12 29.1431H10V31.1431H12V29.1431ZM18.8574 29.1431H20.8574V27.1431H18.8574V29.1431ZM18.8574 36H16.8574V38H18.8574V36ZM29.1431 36V38H31.1431V36H29.1431ZM29.1431 29.1431V27.1431H27.1431V29.1431H29.1431ZM36 29.1431V31.1431H38V29.1431H36ZM36 18.8574H38V16.8574H36V18.8574ZM29.1431 18.8574H27.1431V20.8574H29.1431V18.8574ZM18.8574 14H29.1431V10H18.8574V14ZM20.8574 18.8574V12H16.8574V18.8574H20.8574ZM12 20.8574H18.8574V16.8574H12V20.8574ZM14 29.1431V18.8574H10V29.1431H14ZM18.8574 27.1431H12V31.1431H18.8574V27.1431ZM20.8574 36V29.1431H16.8574V36H20.8574ZM29.1431 34H18.8574V38H29.1431V34ZM27.1431 29.1431V36H31.1431V29.1431H27.1431ZM36 27.1431H29.1431V31.1431H36V27.1431ZM34 18.8574V29.1431H38V18.8574H34ZM29.1431 20.8574H36V16.8574H29.1431V20.8574ZM27.1431 12V18.8574H31.1431V12H27.1431Z" fill="#0E9940" mask="url(#path-1-inside-1_1369_9750)"/>
<circle cx="24" cy="24" r="23" stroke="#0E9940" stroke-width="2"/>
</svg>
