<svg width="20" height="20" viewBox="0 0 20 20" fill="none" xmlns="http://www.w3.org/2000/svg">
<mask id="mask0_459_35056" style="mask-type:alpha" maskUnits="userSpaceOnUse" x="0" y="0" width="20" height="20">
<rect width="20" height="20" fill="#D9D9D9"/>
</mask>
<g mask="url(#mask0_459_35056)">
<path d="M3.33317 16.6654C2.87484 16.6654 2.48248 16.5022 2.15609 16.1758C1.8297 15.8494 1.6665 15.457 1.6665 14.9987V4.9987C1.6665 4.54036 1.8297 4.148 2.15609 3.82161C2.48248 3.49523 2.87484 3.33203 3.33317 3.33203H16.6665C17.1248 3.33203 17.5172 3.49523 17.8436 3.82161C18.17 4.148 18.3332 4.54036 18.3332 4.9987V14.9987C18.3332 15.457 18.17 15.8494 17.8436 16.1758C17.5172 16.5022 17.1248 16.6654 16.6665 16.6654H3.33317ZM3.33317 14.9987H16.6665V4.9987H3.33317V14.9987ZM5.89567 12.4987C6.03456 12.4987 6.14914 12.4536 6.23942 12.3633C6.3297 12.273 6.37484 12.1584 6.37484 12.0195V8.04036C6.37484 7.88759 6.32275 7.75911 6.21859 7.65495C6.11442 7.55078 5.98595 7.4987 5.83317 7.4987C5.76373 7.4987 5.69775 7.50911 5.63525 7.52995C5.57275 7.55078 5.51373 7.58203 5.45817 7.6237L4.52067 8.29036C4.42345 8.35981 4.36442 8.45009 4.34359 8.5612C4.32275 8.67231 4.34706 8.78342 4.4165 8.89453C4.48595 9.00564 4.5797 9.07161 4.69775 9.09245C4.81581 9.11328 4.93039 9.08898 5.0415 9.01953L5.4165 8.7487V12.0195C5.4165 12.1584 5.46164 12.273 5.55192 12.3633C5.6422 12.4536 5.75678 12.4987 5.89567 12.4987ZM8.4165 12.4987H10.8332C10.9443 12.4987 11.0415 12.457 11.1248 12.3737C11.2082 12.2904 11.2498 12.1931 11.2498 12.082C11.2498 11.9709 11.2082 11.8737 11.1248 11.7904C11.0415 11.707 10.9443 11.6654 10.8332 11.6654H9.2915L9.24984 11.6237C9.5415 11.3459 9.78109 11.1098 9.96859 10.9154C10.1561 10.7209 10.3054 10.5681 10.4165 10.457C10.6665 10.207 10.854 9.95703 10.979 9.70703C11.104 9.45703 11.1665 9.19314 11.1665 8.91536C11.1665 8.51259 11.0137 8.17578 10.7082 7.90495C10.4026 7.63411 10.0137 7.4987 9.5415 7.4987C9.26373 7.4987 8.99984 7.56467 8.74984 7.69661C8.49984 7.82856 8.29845 8.01259 8.14567 8.2487C8.07623 8.34592 8.06928 8.45009 8.12484 8.5612C8.18039 8.67231 8.26373 8.7487 8.37484 8.79036C8.48595 8.83203 8.59706 8.83203 8.70817 8.79036C8.81928 8.7487 8.9165 8.6862 8.99984 8.60286C9.06928 8.53342 9.14914 8.47786 9.23942 8.4362C9.3297 8.39453 9.43039 8.3737 9.5415 8.3737C9.74984 8.3737 9.91998 8.42925 10.0519 8.54036C10.1839 8.65148 10.2498 8.79036 10.2498 8.95703C10.2498 9.10981 10.2221 9.25217 10.1665 9.38411C10.1109 9.51606 9.98595 9.67925 9.7915 9.8737L8.12484 11.5404C8.09706 11.5681 8.05539 11.6654 7.99984 11.832V12.082C7.99984 12.1931 8.0415 12.2904 8.12484 12.3737C8.20817 12.457 8.30539 12.4987 8.4165 12.4987ZM14.1665 12.4987C14.6665 12.4987 15.0693 12.3598 15.3748 12.082C15.6804 11.8043 15.8332 11.4431 15.8332 10.9987C15.8332 10.7487 15.7637 10.5265 15.6248 10.332C15.4859 10.1376 15.2915 9.98481 15.0415 9.8737V9.83203C15.2359 9.72092 15.3887 9.57856 15.4998 9.40495C15.6109 9.23134 15.6665 9.02648 15.6665 8.79036C15.6665 8.41536 15.5207 8.10634 15.229 7.86328C14.9373 7.62023 14.5693 7.4987 14.1248 7.4987C13.8471 7.4987 13.5901 7.56467 13.354 7.69661C13.1179 7.82856 12.9234 7.99175 12.7707 8.1862C12.7012 8.28342 12.6943 8.38064 12.7498 8.47786C12.8054 8.57509 12.8887 8.65148 12.9998 8.70703C13.1109 8.7487 13.2221 8.75217 13.3332 8.71745C13.4443 8.68273 13.5415 8.6237 13.6248 8.54036C13.6943 8.47092 13.7707 8.41884 13.854 8.38411C13.9373 8.34939 14.0276 8.33203 14.1248 8.33203C14.3054 8.33203 14.4547 8.38411 14.5728 8.48828C14.6908 8.59245 14.7498 8.72092 14.7498 8.8737C14.7498 9.06814 14.6804 9.22092 14.5415 9.33203C14.4026 9.44314 14.2221 9.4987 13.9998 9.4987C13.8887 9.4987 13.7915 9.54036 13.7082 9.6237C13.6248 9.70703 13.5832 9.80425 13.5832 9.91536C13.5832 10.0265 13.6248 10.1237 13.7082 10.207C13.7915 10.2904 13.8887 10.332 13.9998 10.332C14.2776 10.332 14.4998 10.3876 14.6665 10.4987C14.8332 10.6098 14.9165 10.7626 14.9165 10.957C14.9165 11.1376 14.8401 11.2938 14.6873 11.4258C14.5346 11.5577 14.3609 11.6237 14.1665 11.6237C13.9998 11.6237 13.8609 11.5959 13.7498 11.5404C13.6387 11.4848 13.5415 11.3945 13.4582 11.2695C13.3887 11.1723 13.3019 11.1063 13.1978 11.0716C13.0936 11.0369 12.9859 11.0404 12.8748 11.082C12.7498 11.1376 12.6596 11.2174 12.604 11.3216C12.5484 11.4258 12.5484 11.5334 12.604 11.6445C12.7568 11.9223 12.9651 12.1341 13.229 12.2799C13.4929 12.4258 13.8054 12.4987 14.1665 12.4987Z" fill="#606060"/>
</g>
</svg>
