<svg width="16" height="16" viewBox="0 0 16 16" fill="none" xmlns="http://www.w3.org/2000/svg">
<mask id="mask0_1085_5997" style="mask-type:alpha" maskUnits="userSpaceOnUse" x="0" y="0" width="16" height="16">
<rect width="16" height="16" fill="#D9D9D9"/>
</mask>
<g mask="url(#mask0_1085_5997)">
<path d="M8.00017 11.5167L5.23351 13.1834C5.11128 13.2611 4.98351 13.2945 4.85017 13.2834C4.71684 13.2723 4.60017 13.2278 4.50017 13.15C4.40017 13.0723 4.3224 12.975 4.26684 12.8584C4.21128 12.7417 4.20017 12.6111 4.23351 12.4667L4.96684 9.3167L2.51684 7.20003C2.40573 7.10003 2.33628 6.98614 2.30851 6.85836C2.28073 6.73058 2.28906 6.60558 2.33351 6.48336C2.37795 6.36114 2.44462 6.26114 2.53351 6.18336C2.6224 6.10558 2.74462 6.05558 2.90017 6.03336L6.13351 5.75003L7.38351 2.78336C7.43906 2.65003 7.52517 2.55003 7.64184 2.48336C7.75851 2.4167 7.87795 2.38336 8.00017 2.38336C8.1224 2.38336 8.24184 2.4167 8.35851 2.48336C8.47517 2.55003 8.56128 2.65003 8.61684 2.78336L9.86684 5.75003L13.1002 6.03336C13.2557 6.05558 13.378 6.10558 13.4668 6.18336C13.5557 6.26114 13.6224 6.36114 13.6668 6.48336C13.7113 6.60558 13.7196 6.73058 13.6918 6.85836C13.6641 6.98614 13.5946 7.10003 13.4835 7.20003L11.0335 9.3167L11.7668 12.4667C11.8002 12.6111 11.7891 12.7417 11.7335 12.8584C11.678 12.975 11.6002 13.0723 11.5002 13.15C11.4002 13.2278 11.2835 13.2723 11.1502 13.2834C11.0168 13.2945 10.8891 13.2611 10.7668 13.1834L8.00017 11.5167Z" fill="#EFA971"/>
</g>
</svg>
